/* XPM */
static char * collect3_xpm[] = {
"64 64 207 2",
"  	c #C0D470",
". 	c #A4C263",
"+ 	c #EAE178",
"@ 	c #794B29",
"# 	c #6C4122",
"$ 	c #884527",
"% 	c #923D25",
"& 	c #863623",
"* 	c #853D25",
"= 	c #8D5B2A",
"- 	c #AD7A34",
"; 	c #9B6C32",
"> 	c #93642C",
", 	c #A26D2E",
"' 	c #9A642C",
") 	c #8C5427",
"! 	c #8C3B24",
"~ 	c #8C3623",
"{ 	c #9C4429",
"] 	c #B46A49",
"^ 	c #AC6945",
"/ 	c #9A6427",
"( 	c #BC8B3B",
"_ 	c #84592B",
": 	c #B48135",
"< 	c #935C2A",
"[ 	c #8D5529",
"} 	c #B77050",
"| 	c #C38969",
"1 	c #A65634",
"2 	c #7D5428",
"3 	c #9B7037",
"4 	c #8F4A27",
"5 	c #AB5E40",
"6 	c #AA5533",
"7 	c #9D6A2C",
"8 	c #DDB74B",
"9 	c #DDB437",
"0 	c #AD8536",
"a 	c #AB7432",
"b 	c #9B4E27",
"c 	c #9D4C2A",
"d 	c #A34B2B",
"e 	c #C89640",
"f 	c #D1A52D",
"g 	c #986433",
"h 	c #BC8D43",
"i 	c #875528",
"j 	c #945C27",
"k 	c #B4833B",
"l 	c #C2964B",
"m 	c #C99B4B",
"n 	c #CB9A42",
"o 	c #C79737",
"p 	c #E4C55A",
"q 	c #B68F49",
"r 	c #D6A828",
"s 	c #AB812A",
"t 	c #B88639",
"u 	c #A3753A",
"v 	c #CBA453",
"w 	c #D7B05B",
"x 	c #DAB562",
"y 	c #C49C4F",
"z 	c #C39544",
"A 	c #B59658",
"B 	c #C69528",
"C 	c #D8A91A",
"D 	c #DEB32A",
"E 	c #B17D34",
"F 	c #CEA34B",
"G 	c #D6AD54",
"H 	c #DDBB66",
"I 	c #DDB95C",
"J 	c #AC7C3A",
"K 	c #A57132",
"L 	c #B19769",
"M 	c #AD9568",
"N 	c #CB9C3A",
"O 	c #CEA535",
"P 	c #B98536",
"Q 	c #A8753B",
"R 	c #E0BE6B",
"S 	c #E0BC62",
"T 	c #AC8D5B",
"U 	c #E0BF4E",
"V 	c #DFC15A",
"W 	c #9D742F",
"X 	c #D4AB4D",
"Y 	c #BF903B",
"Z 	c #D9B45C",
"` 	c #DEBC69",
" .	c #C79843",
"..	c #B8A67A",
"+.	c #70786D",
"@.	c #88815A",
"#.	c #AE8747",
"$.	c #D6B356",
"%.	c #BE9449",
"&.	c #CBA559",
"*.	c #C49B53",
"=.	c #9B8D69",
"-.	c #616F71",
";.	c #918B71",
">.	c #667775",
",.	c #A4955B",
"'.	c #C08C3A",
").	c #D1AA56",
"!.	c #D5B568",
"~.	c #A58353",
"{.	c #506069",
"].	c #557077",
"^.	c #ADA07E",
"/.	c #B2B293",
"(.	c #C9B588",
"_.	c #C6953C",
":.	c #9F7E53",
"<.	c #897F62",
"[.	c #8D876D",
"}.	c #7D8171",
"|.	c #BEB086",
"1.	c #7A9CA4",
"2.	c #A8B6A9",
"3.	c #C3C4A5",
"4.	c #CAAF7C",
"5.	c #B38344",
"6.	c #D3A748",
"7.	c #DABA72",
"8.	c #CEAC69",
"9.	c #C39A56",
"0.	c #86978D",
"a.	c #C7C5A9",
"b.	c #84A2A7",
"c.	c #E2D2A8",
"d.	c #C6A875",
"e.	c #BB8E4B",
"f.	c #E2C574",
"g.	c #E4CA82",
"h.	c #DFC16F",
"i.	c #944426",
"j.	c #9B5A2B",
"k.	c #8A8972",
"l.	c #979679",
"m.	c #96A496",
"n.	c #B1BDAB",
"o.	c #6891A2",
"p.	c #C8CCB7",
"q.	c #D8D3B6",
"r.	c #E5DBBC",
"s.	c #C29E61",
"t.	c #974128",
"u.	c #8F7B58",
"v.	c #789190",
"w.	c #CCC29A",
"x.	c #A3B6B3",
"y.	c #BCC7BB",
"z.	c #90ADB5",
"A.	c #DEE0CC",
"B.	c #A5BEC8",
"C.	c #E6E8DD",
"D.	c #E6DEC3",
"E.	c #9A4227",
"F.	c #7D3820",
"G.	c #A47D49",
"H.	c #94A8A5",
"I.	c #99B4BB",
"J.	c #ACC2C5",
"K.	c #E5EAE1",
"L.	c #AFC6D1",
"M.	c #C9D7D5",
"N.	c #B5C8C7",
"O.	c #E5DCBB",
"P.	c #A7722F",
"Q.	c #C3CFC3",
"R.	c #8EAFBD",
"S.	c #ECF0E5",
"T.	c #9CB9C9",
"U.	c #C7D3CD",
"V.	c #DBC79A",
"W.	c #DCB452",
"X.	c #EBE5CC",
"Y.	c #A1472A",
"Z.	c #DDE3DB",
"`.	c #D5BD88",
" +	c #A36C32",
".+	c #A35E34",
"++	c #CBB27E",
"@+	c #CFA95C",
"#+	c #D2E077",
"$+	c #A8532F",
"%+	c #A4582C",
"&+	c #E2C97D",
"*+	c #E2C16C",
"=+	c #AB5933",
"-+	c #B05E38",
";+	c #B2623C",
">+	c #B56943",
",+	c #AC6A37",
"'+	c #B47D40",
")+	c #B37937",
"!+	c #BB724C",
"~+	c #BD7A52",
"{+	c #C17B55",
"]+	c #9E522A",
"^+	c #C2825B",
"/+	c #AE5A38",
"(+	c #BF9142",
"                                                                                                                                ",
"                                                                                                                                ",
"                                                                                                                                ",
"                                                                                                                                ",
"                        . . . . . . . . . .                                                                                     ",
"                        . . . . . . . . . .                                                                                     ",
"                . . . . . . . . . . . . . . . .                                 + + + +                                         ",
"                . . . . . . . . . . . . . . . .                                 + + + +                                         ",
"            . . . . . . . . . . . . . . . . . .                             + + + + + + + +                                     ",
"            . . . . . . . . . . . . . . . . . .                             + + + + + + + +                                     ",
"            . . . . . . . . . . . . . . . . . .                                 + + + +                 + + + +                 ",
"            . . . . . . . . . . . . . . . . . .                                 + + + +                 + + + +                 ",
"                . . . . . . . . . . . . . .                                                         + + + + + + + +             ",
"                . . . . . . . . . . . . . .                                                         + + + + + + + +             ",
"                                                                                                        + + + +                 ",
"                                                                                                        + + + +                 ",
"                                        . . . . . .             @ #   $ % & & *                                                 ",
"                                        . . . . . . = - ; > - - , ' ) ! ~ ~ { ] ^                                               ",
"        . . . . . . . .             . . . . . . . . / ( _ : , < [ ) ) $ ~ ~ { } | 1                                             ",
"        . . . . . . . .             . . . . . . . 2 < : 3 > ' < [ ) [ < 4 % { 5 } 6                                             ",
"    . . . . . . . . . . . .         . . . . . 7 8 9 0 / ( > = < [ [ < 7 a , b c d d     + + + +                                 ",
"    . . . . . . . . . . . .         . . . . ; e f 9 8 g / h > i [ j ' , - k h h l m     + + + +                                 ",
"    . . . . . . . . . . . .             . ; n o p q 7 r s > t u i < ' , - h m v w x y + + + + + + +                             ",
"    . . . . . . . . . . . .             _ z : u A = B C D 0 > E k i < , E h F G x H I + + + + + + +                             ",
"        . . . . . . . .                 J ( K L M N r O f D O ; 7 P Q 7 - z F G x R S z + + + +                                 ",
"        . . . . . . . .               _ ( a T L T U V W B 9 F X > > : Y k k z v Z ` S  .+ + + +                                 ",
"                                      ; ( Q ..M +.A @.#.8 $.- E K ; ; - o F z h %.&.w z *.                                      ",
"                                      k a L L =.-.;.>.=.,.T K P '.( P - - : o X Z ).&.!.` %.                                    ",
"                                    # h , ~.M {.+.].=.>.^./.(.#.: _.N n  .z h t e F Z H Z l                                     ",
"                                    g ( ' = :.<.[.}.+.;.|.1.2.3.4.5.'.6.6.Z ` 7.8.*.l %.9.                                      ",
"                                    $ J ' [ = ~.+.;.>...0.a.b.c.a.3.d.e. .w f.g.g.h.x %.                                        ",
"                                    i.4 j.< [ < T }.k.l.m.3.n.2.o.p.q.r.^.s.v 7.g.f.H X                                         ",
"                                    t.% * < < j ' u.].v.w.1.1.b.x.y.z.A.B.C.D.(.9.*.I X                                         ",
"                                    E.E.! F.< 7 , , G...w.H.q.b.p.I.I.J.K.L.M.N.O.%.I X                                         ",
"                                    E.{ E.% F.[ P.- E J d.c.a.2.x.Q.R.L.S.T.U.D.V.v W.m                                         ",
"                                    t.{ { { E.! $ - P '.( e...r.y.X.T.K.T.M.X.O.8.I W.q                                         ",
"                                    * E.E.{ Y.Y.i.4 a _.e n n l 4.r.Z.B.Z.X.O.`.).W.F                                           ",
"                                     +$ % % { d d d i..+'.n 6.X X &.++a.D.O.V.@+I X q                                           ",
"                        #+#+#+#+#+#+K  +* ! E.{ d d d d b a n W.I R f.7.8.8.v I W.l                                             ",
"                        #+#+#+#+#+#+< a  +$ ! E.c d d $+6 6 %+a *.7.g.&+f.*+I W.z                                               ",
"                    #+#+#+#+#+#+#+#+@ 7 K  +j.i.d d $+=+-+;+>+>+,+,+'+9.x S W.l                                                 ",
"                    #+#+#+#+#+#+#+#+#+i ' K - )+j.c =+;+>+!+~+{+~+!+>+=+]+]+g                                                   ",
"                    #+#+#+#+#+#+#+#+#+#+i ' k z F k .+.+] {+^+^+^+~+>+/+$+c         + + + +                                     ",
"                    #+#+#+#+#+#+#+#+#+#+#+#+; z G I x e.Q ^ ~+^+{+!+;+1             + + + +                                     ",
"                    #+#+#+#+#+#+#+#+#+#+#+#+#+> l H f.&+&+7.9.5.,+.+]+          + + + + + + + +                                 ",
"                    #+#+#+#+#+#+#+#+#+#+#+#+#+#+#+J 9.7.g.f.S X (+              + + + + + + + +                                 ",
"                        #+#+#+#+#+#+#+#+#+#+#+#+#+#+    J h k                       + + + +                                     ",
"                        #+#+#+#+#+#+#+#+#+#+#+#+#+#+                                + + + +                                     ",
"                                                                                                                                ",
"                                                                                                                                ",
"            #+#+#+#+#+#+#+#+                                                                                                    ",
"            #+#+#+#+#+#+#+#+                                                                                                    ",
"        #+#+#+#+#+#+#+#+#+#+#+#+                                                                + + + +                         ",
"        #+#+#+#+#+#+#+#+#+#+#+#+                                                                + + + +                         ",
"        #+#+#+#+#+#+#+#+#+#+#+#+                                                            + + + + + + + +                     ",
"        #+#+#+#+#+#+#+#+#+#+#+#+                                                            + + + + + + + +                     ",
"            #+#+#+#+#+#+#+#+                                                                    + + + +                         ",
"            #+#+#+#+#+#+#+#+                                                                    + + + +                         ",
"                                                                                                                                ",
"                                                                                                                                ",
"                                                                                                                                ",
"                                                                                                                                ",
"                                                                                                                                ",
"                                                                                                                                "};
