/* XPM */
static char *d8ad4e7c2af64284d6d9fb3ed070514a7Ia5SdZVzooiq4q3[] = {
/* columns rows colors chars-per-pixel */
"64 64 207 2 ",
"   c None",
".  c #7D3820",
"X  c #6C4122",
"o  c #794B29",
"O  c #7D5428",
"+  c #506069",
"@  c #557077",
"#  c #616F71",
"$  c #667775",
"%  c #70786D",
"&  c #8C3623",
"*  c #853D25",
"=  c #8C3B24",
"-  c #863623",
";  c #923D25",
":  c #8F4A27",
">  c #884527",
",  c #944426",
"<  c #9A4227",
"1  c #974128",
"2  c #9C4429",
"3  c #9D4C2A",
"4  c #9B4E27",
"5  c #8C5427",
"6  c #8D5529",
"7  c #84592B",
"8  c #8D5B2A",
"9  c #875528",
"0  c #945C27",
"q  c #9E522A",
"w  c #935C2A",
"e  c #9B5A2B",
"r  c #A1472A",
"t  c #A34B2B",
"y  c #A8532F",
"u  c #A4582C",
"i  c #A65634",
"p  c #AA5533",
"a  c #A35E34",
"s  c #AB5933",
"d  c #AE5A38",
"f  c #B05E38",
"g  c #93642C",
"h  c #9A642C",
"j  c #9D6A2C",
"k  c #9A6427",
"l  c #9D742F",
"z  c #9B6C32",
"x  c #986433",
"c  c #9B7037",
"v  c #A26D2E",
"b  c #A36C32",
"n  c #AC6A37",
"m  c #B2623C",
"M  c #A57132",
"N  c #AB7432",
"B  c #AD7A34",
"V  c #A3753A",
"C  c #AC7C3A",
"Z  c #A8753B",
"A  c #B17D34",
"S  c #B37937",
"D  c #A7722F",
"F  c #AB5E40",
"G  c #9F7E53",
"H  c #8F7B58",
"J  c #AC6945",
"K  c #B56943",
"L  c #B46A49",
"P  c #BB724C",
"I  c #B47D40",
"U  c #BC7453",
"Y  c #BD7A52",
"T  c #B77050",
"R  c #A47D49",
"E  c #897F62",
"W  c #C17B55",
"Q  c #7D8171",
"!  c #AD8536",
"~  c #B48135",
"^  c #B98536",
"/  c #B4833B",
"(  c #BC8B3B",
")  c #B88639",
"_  c #BF903B",
"`  c #AB812A",
"'  c #D8A91A",
"]  c #C69528",
"[  c #C08C3A",
"{  c #C79737",
"}  c #C6953C",
"|  c #CB9C3A",
" . c #D6A828",
".. c #D1A52D",
"X. c #DEB32A",
"o. c #CEA535",
"O. c #D2A530",
"+. c #DDB437",
"@. c #88815A",
"#. c #AE8747",
"$. c #BC8D43",
"%. c #B68F49",
"&. c #BB8E4B",
"*. c #B38344",
"=. c #BE9449",
"-. c #BF9142",
";. c #AC8D5B",
":. c #A58353",
">. c #B59658",
",. c #A4955B",
"<. c #9B8D69",
"1. c #8A8972",
"2. c #918B71",
"3. c #979679",
"4. c #8D876D",
"5. c #AD9568",
"6. c #B19769",
"7. c #ADA07E",
"8. c #B8A67A",
"9. c #C39544",
"0. c #C79843",
"q. c #CB9A42",
"w. c #C2964B",
"e. c #C49C4F",
"r. c #C99B4B",
"t. c #C89640",
"y. c #C2825B",
"u. c #C49B53",
"i. c #C39A56",
"p. c #CEA34B",
"a. c #D4AB4D",
"s. c #D3A748",
"d. c #DDB74B",
"f. c #CBA453",
"g. c #CBA559",
"h. c #CFA95C",
"j. c #D6AD54",
"k. c #D1AA56",
"l. c #DCB452",
"z. c #D7B05B",
"x. c #D9B45C",
"c. c #DDB95C",
"v. c #D6B356",
"b. c #E0BF4E",
"n. c #C29E61",
"m. c #C38969",
"M. c #CEAC69",
"N. c #DAB562",
"B. c #DDBB66",
"V. c #DEBC69",
"C. c #D5B568",
"Z. c #CAAF7C",
"A. c #C6A875",
"S. c #CBB27E",
"D. c #DABA72",
"F. c #E0BC62",
"G. c #E0BE6B",
"H. c #DFC15A",
"J. c #E4C55A",
"K. c #DFC16F",
"L. c #E2C16C",
"P. c #E2C574",
"I. c #E2C97D",
"U. c #789190",
"Y. c #7A9CA4",
"T. c #6891A2",
"R. c #86978D",
"E. c #96A496",
"W. c #BEB086",
"Q. c #B2B293",
"!. c #84A2A7",
"~. c #8EAFBD",
"^. c #90ADB5",
"/. c #99B4BB",
"(. c #94A8A5",
"). c #A8B6A9",
"_. c #B1BDAB",
"`. c #A3B6B3",
"'. c #C9B588",
"]. c #D5BD88",
"[. c #BCC7BB",
"{. c #CCC29A",
"}. c #DBC79A",
"|. c #E4CA82",
" X c #C3C4A5",
".X c #C7C5A9",
"XX c #C8CCB7",
"oX c #D8D3B6",
"OX c #D8CDA8",
"+X c #E5DCBB",
"@X c #E5DBBC",
"#X c #E2D2A8",
"$X c #9CB9C9",
"%X c #A5BEC8",
"&X c #B5C8C7",
"*X c #AFC6D1",
"=X c #ACC2C5",
"-X c #C3CFC3",
";X c #C9D7D5",
":X c #C7D3CD",
">X c #E6DEC3",
",X c #DEE0CC",
"<X c #DDE3DB",
"1X c #EBE5CC",
"2X c #E6E8DD",
"3X c #E5EAE1",
"4X c #ECF0E5",
/* pixels */
"                                                                                                                                ",
"                                                                                                                                ",
"                                                                                                                                ",
"                                                                                                                                ",
"                                                                                                                                ",
"                                                                                                                                ",
"                                                                                                                                ",
"                                                                                                                                ",
"                                                                                                                                ",
"                                                                                                                                ",
"                                                                                                                                ",
"                                                                                                                                ",
"                                                                                                                                ",
"                                                                                                                                ",
"                                                                                                                                ",
"                                                                                                                                ",
"                                                                o X   > ; - - *                                                 ",
"                                                    8 B z g B B v h 5 = & & 2 L J                                               ",
"                                                    k ( 7 ~ v w 6 5 5 > & & 2 T m.i                                             ",
"                                                  O w ~ c g h w 6 5 6 w : ; 2 F T p                                             ",
"                                              j d.+.! k ( g 8 w 6 6 w j N v 4 3 t t                                             ",
"                                            z t...+.d.x k $.g 9 6 0 h v B / $.$.w.r.                                            ",
"                                          z q.{ J.%.j  .` g ) V 9 w h v B $.r.f.z.N.e.                                          ",
"                                        7 9.~ V >.8 ] ' X.! g A / 9 w v A $.p.j.N.B.c.                                          ",
"                                        C ( M 6.5.|  .o...X.o.z j ^ Z j B 9.p.j.N.G.F.9.                                        ",
"                                      7 ( N ;.6.;.b.H.l ] +.p.a.g g ~ _ / / 9.f.x.V.F.0.                                        ",
"                                      z ( Z 8.5.% >.@.#.d.v.B A M z z B { p.9.$.=.g.z.9.u.                                      ",
"                                      / N 6.6.<.# 2.$ <.,.;.M ^ [ ( ^ B B ~ { a.x.k.g.C.V.=.                                    ",
"                                    X $.v :.5.+ % @ <.$ 7.Q.'.#.~ } | q.0.9.$.) t.p.x.B.x.w.                                    ",
"                                    x ( h 8 G E 4.Q % 2.W.Y.). XZ.*.[ s.s.x.V.D.M.u.w.=.i.                                      ",
"                                    > C h 6 8 :.% 2.$ 8.R..X!.#X.X XA.&.0.z.P.|.|.K.N.=.                                        ",
"                                    , : e w 6 w ;.Q 1.3.E. X_.).T.XXoX@X7.n.f.D.|.P.B.a.                                        ",
"                                    1 ; * w w 0 h H @ U.{.Y.Y.!.`.[.^.,X%X2X>X'.i.u.c.a.                                        ",
"                                    < < = . w j v v R 8.{.(.oX!.XX/./.=X3X*X;X&X+X=.c.a.                                        ",
"                                    < 2 < ; . 6 D B A C A.#X.X).`.-X~.*X4X$X:X>X}.f.l.r.                                        ",
"                                    1 2 2 2 < = > B ^ [ ( &.8.@X[.1X$X3X$X;X1X+XM.c.l.%.                                        ",
"                                    * < < 2 r r , : N } t.q.q.w.Z.@X<X%X<X1X+X].k.l.p.                                          ",
"                                    b > ; ; 2 t t t , a [ q.s.a.a.g.S..X>X+X}.h.c.a.%.                                          ",
"                                    M b * = < 2 t t t t 4 N q.l.c.G.P.D.M.M.f.c.l.w.                                            ",
"                                    w N b > = < 3 t t y p p u N u.D.|.I.P.L.c.l.9.                                              ",
"                                    o j M b e , t t y s f m K K n n I i.N.F.l.w.                                                ",
"                                      9 h M B S e 3 s m K P Y W Y P K s q q x                                                   ",
"                                        9 h / 9.p./ a a L W y.y.y.Y K d y 3                                                     ",
"                                            z 9.j.c.N.&.Z J Y y.W P m i                                                         ",
"                                              g w.B.P.I.I.D.i.*.n a q                                                           ",
"                                                  C i.D.|.P.F.a.-.                                                              ",
"                                                        C $./                                                                   ",
"                                                                                                                                ",
"                                                                                                                                ",
"                                                                                                                                ",
"                                                                                                                                ",
"                                                                                                                                ",
"                                                                                                                                ",
"                                                                                                                                ",
"                                                                                                                                ",
"                                                                                                                                ",
"                                                                                                                                ",
"                                                                                                                                ",
"                                                                                                                                ",
"                                                                                                                                ",
"                                                                                                                                ",
"                                                                                                                                ",
"                                                                                                                                ",
"                                                                                                                                "
};
