/* XPM */
static char *_1b0ca41b69a4316c199324493298356P2kq476fQJIl4gaP[] = {
/* columns rows colors chars-per-pixel */
"64 64 243 2 ",
"   c #30342B",
".  c #1D3A28",
"X  c #493327",
"o  c #573A29",
"O  c #573F34",
"+  c #473E34",
"@  c #6F3D35",
"#  c #37571A",
"$  c #3E661D",
"%  c #1C4E38",
"&  c #27483C",
"*  c #25563C",
"=  c #335227",
"-  c #3D6726",
";  c #386C33",
":  c #594337",
">  c #524D2F",
",  c #6B4632",
"<  c #694834",
"1  c #764E37",
"2  c #7C553A",
"3  c #6A5036",
"4  c #436623",
"5  c #487928",
"6  c #516E33",
"7  c #6C7938",
"8  c #4E7C1E",
"9  c #473F40",
"0  c #2D5644",
"q  c #1E6643",
"w  c #266A46",
"e  c #2A7448",
"r  c #287954",
"t  c #377A55",
"y  c #336F4E",
"u  c #525651",
"i  c #785644",
"p  c #695249",
"a  c #43795B",
"s  c #4D6C50",
"d  c #65784D",
"f  c #766C4C",
"g  c #557064",
"h  c #70706F",
"j  c #D83B3D",
"k  c #EB3C3E",
"l  c #F23C3E",
"z  c #81553C",
"x  c #895A3B",
"c  c #B5563E",
"v  c #E9473D",
"b  c #F2423E",
"n  c #EB563C",
"m  c #F2563C",
"M  c #DF603B",
"N  c #B63E47",
"B  c #EA3D40",
"V  c #F33D41",
"C  c #F83F42",
"Z  c #CF3F41",
"A  c #875D43",
"S  c #925D42",
"D  c #9F4458",
"F  c #AD514E",
"G  c #896548",
"H  c #956245",
"J  c #996748",
"K  c #947557",
"L  c #927251",
"P  c #A36949",
"I  c #A7744B",
"U  c #B2754E",
"Y  c #AA7454",
"T  c #B67A56",
"R  c #A86F51",
"E  c #917464",
"W  c #A7676F",
"Q  c #DA4847",
"!  c #ED4642",
"~  c #F34242",
"^  c #F35641",
"/  c #CA7E5D",
"(  c #4C842B",
")  c #55882B",
"_  c #5E932E",
"`  c #568936",
"'  c #5B9836",
"]  c #4C8436",
"[  c #659A2A",
"{  c #698838",
"}  c #669A37",
"|  c #709133",
" . c #5EA53C",
".. c #6AA82C",
"X. c #74AD2C",
"o. c #78B72C",
"O. c #67A737",
"+. c #6EB439",
"@. c #76B739",
"#. c #74A934",
"$. c #7CC33B",
"%. c #7EC02E",
"&. c #298658",
"*. c #368758",
"=. c #2C915C",
"-. c #34945E",
";. c #2C864A",
":. c #3AB25E",
">. c #388D64",
",. c #2E9463",
"<. c #2C9C68",
"1. c #329462",
"2. c #369B69",
"3. c #399770",
"4. c #2EA56B",
"5. c #36A76B",
"6. c #34AC74",
"7. c #3AAB74",
"8. c #38A875",
"9. c #3CB375",
"0. c #3BB37C",
"q. c #3BBC7C",
"w. c #35B777",
"e. c #34B16E",
"r. c #6F914B",
"t. c #68AA44",
"y. c #7AA747",
"u. c #6BB743",
"i. c #78BB46",
"p. c #71B754",
"a. c #478966",
"s. c #459867",
"d. c #56997B",
"f. c #529373",
"g. c #798578",
"h. c #6F8C69",
"j. c #46A66B",
"k. c #43AA76",
"l. c #56A875",
"z. c #42BB7C",
"x. c #49B778",
"c. c #55B87C",
"v. c #6DAD6D",
"b. c #41875D",
"n. c #3BC27D",
"m. c #37C37D",
"M. c #7AC443",
"N. c #42C37D",
"B. c #4DC479",
"V. c #53D17B",
"C. c #8A9039",
"Z. c #85B536",
"A. c #A2A139",
"S. c #86C836",
"D. c #8DCF36",
"F. c #92904D",
"G. c #BD885B",
"H. c #AA8B58",
"J. c #88B845",
"K. c #90AE52",
"L. c #ABAD52",
"P. c #859479",
"I. c #89A66F",
"U. c #AC9868",
"Y. c #C6865C",
"T. c #C9985F",
"R. c #D89468",
"E. c #CC8D65",
"W. c #E7916A",
"Q. c #D4A972",
"!. c #E6A877",
"~. c #EBAE74",
"^. c #C2AB58",
"/. c #88CA45",
"(. c #97DC44",
"). c #8ED14B",
"_. c #9BE346",
"`. c #A4E848",
"'. c #B4CA68",
"]. c #ACD158",
"[. c #CCD571",
"{. c #D0E76E",
"}. c #767C84",
"|. c #7B758A",
" X c #997C8F",
".X c #3DBC83",
"XX c #3FB782",
"oX c #599785",
"OX c #688885",
"+X c #748486",
"@X c #7F879A",
"#X c #7E899C",
"$X c #7B8C95",
"%X c #6B998F",
"&X c #46BA85",
"*X c #56B994",
"=X c #54AF88",
"-X c #65A494",
";X c #7F8BA1",
":X c #3CC383",
">X c #3DCA86",
",X c #3FD184",
"<X c #43C383",
"1X c #4AC382",
"2X c #43CA84",
"3X c #42C58B",
"4X c #43CB8B",
"5X c #4BCC8A",
"6X c #4BCA86",
"7X c #54C987",
"8X c #47D58C",
"9X c #54D58A",
"0X c #49C792",
"qX c #49D692",
"wX c #53CF96",
"eX c #4EE496",
"rX c #65F085",
"tX c #86868B",
"yX c #88878C",
"uX c #86888D",
"iX c #89898D",
"pX c #858885",
"aX c #828793",
"sX c #858A95",
"dX c #888B92",
"fX c #808799",
"gX c #80899A",
"hX c #808B9D",
"jX c #828B9D",
"kX c #808B9F",
"lX c #828A9D",
"zX c #828C9E",
"xX c #838B9A",
"cX c #8C8B8A",
"vX c #808BA0",
"bX c #ABB1BB",
"nX c #D6B184",
"mX c #E8B988",
"MX c #FCBC83",
"NX c #F8C78B",
"BX c #F1CF91",
"VX c #F0EB90",
"CX c #E8DD9B",
/* pixels */
";X;X;X;X;X;X;X;X;X;X;X;X;X;X;X;X;X;X;X;X;X;X;X;X;X;X;X;X;X;X;X;X#X#X#X#X#X#X#X#X#X#X#X#X#X#X#X#X#X#X;X#X#X#X#X#X#X#X#X#X#X#X#X#X",
";X;X;X;X;X;X;X;X;X;X;X;X;XvX;X;X;X;X;X;X;X;X;X;X;X;X;X;X;X#X#X#X#X#X#X#X#X#X#X#X#X#X#X#X#X#X#X#X#X#X#X#X#X#X#X#X#X#X#X#X#X#X#X#X",
";X;X;X;X;X;X;X;X;X;X;X;X;X#X#X#X#X#X#X#X#X#X#X#X#X#X#X#X#X#X#X#X#X#X#X#X#X#X#X#X#X#X#X#X#X#X#X#X#X#X#X#X#X#X#X#X#X#X#X#X#X#X#X#X",
";X;X;X;X;X;X;X;X;X;X;X;X#X#X#X#X#X#X#X#X#X#X#X#X#X#X#X#X#X#X#X#X#X#X#X#X#X#X#X#X#X#X#X#X#X#X#X#X#X#X#X#X#X#X#X#X#X#X#X#X#X#X#X#X",
";X;X;X;X;X;X;X;X;X#X#X#X#X#X#X#X#X#X#X#X#X#X#X#X#X#X#X#X#X#X#X#X;X#X#X#X#X#X#X#X#X#X#X#X#X#X#X#X@X@X@X@X#X#X#X#X#X#X#X#X#X#X#X#X",
";X;X;X;X;X#X#X#X#X#X#X#X#X#X#X#X#X#X#X#X#X#X#X#X#X#X#X#X#X#X#X#X#X#X#X#X#X#X#X#X#X#X@X@X@X@X#X@X@X@X@X#X#X#X#X#X#X#X#X#X#X#X#X#X",
"kXkXkXkXkXkXkXkXzXzXvXkXkX#XzXzX;X#X#X#X#X#X#X#X#X#X#X#X#X#X#X#X#X#X#X#X#X#X@X@X#X@X@X@X@X@X#X#X@X@X@X#X#X#X#X#X#X@X@X@X@X@X@X@X",
"kXkXkXkXkXvXvXvXzXzXzXkXkXkXkXkXkX#X#X#X;X;X#X#X#X#X#X#XkX#X#X$XoX=XoX-X%X$X#X#X#X@X@X@X@X@X@X@X@X@X@X@X@X@X@X@X@X@X@X@X@X@X@X@X",
"kXkXkXkXkXkXkXkXzXkXkXkXkXkXkXkXkX#X#X#X#X#X#X#X#X#X#X#X$XoXd.0.:X>Xq.:X:X&X$X#X@X@X@X@X@X@X@XjX@XjX@X@X@X@X@X@X@X@X@X@X@X@X@X@X",
"kXkXkXkXzXkXkXkXkXkXkXkXkXkXkXkXkXzX#X#X#X#X#X#X#X#X#X>.6.=.,.2.2.k.=.2.7.7.e 0.*X@XjXjXfXjXfXjXjX@X@X@X@X@XfXfXfXfX@X@X@X@X@X@X",
"zXkXkXkXkXkXkXkXkXkXkXkXkXkXkXjXkXkXkXkXkX#X#XkX#X-X8.<.6.8.8.0.0.k.k.x.x.4Xq.6.1.d.jXjX@X@XfXfXjXjX@X@X@X@X@X@X@X@X@X@X@X@X@X@X",
"zXkXkXkXkXkXkXkXkXkXkXkXkXkXkXkXkXkXkXkXkXkXkX#X<.2.2.6.6.9.w.0.q.0..X4X3X&Xq.q.:X=X#XjX@X@XjXjXjXjXjX@X@X@X@X@X@X@X@X@X@X@X@X@X",
"zXzXkXkXkXkXkXjXkXkXkXkXkXkXkXkXkXkXjXkXkXkXkXs ,.4.w.w.q.9.9.1X8X1X2X8X>X0.0X.X2X:X>X*X$XjXjXjXjXjX@X@X@X@X@X@X@X@X@X@X@X@X@X@X",
"zXzXzXkXkXkXkXkXkXkXkXkXkXkXkXjXkXkXkXkX$XOXoX8.<.e.q.n.N.n.2X8X8X1X5X1X:X:X8.0.4X4X3X4X*XjXjXjXjXjXjX@X@X@X@X@X@X@X@X@X@X@X@X@X",
"zXzXzXkXkXkXkXkXkXkXkXjXjXjXjXjXjXjX#X3.6.6.6.w <.,.7.q.N.6Xz.5X8X5X5XqX8X&.&.r 1XeX4X&X3X0XjXjXjXjXjXfXjXjXjX@X@X@X@X@X@X@X@X@X",
"zXzXzXkXkXkXkXkXjXjXjXjXjXjXjXjXjXoX1.4.4.0.6.y r r 6.6.k.1.x.&.7.4.2Xq.:X9.&.=.7X7XqXXX<X.XwXjXjXjXjXjXjXjXjXjXjX@X@X@X@X@X@X@X",
"zXzXzXzXjXjXjXjXjXjXjXjXkXkXkXkXOX<.6.w.w.w.9.2X0 0 4.a.j.j.a.f.l.s.x.&X9Xr t s.x.7X7Xn.2.q q.%XjXjXjXjXfXfXfXaXaXaXaXaX@X@X@XjX",
"zXzXzXzXzXjXjXjXjXjXjXjXkXkXkX=X3.4.m.m.w.n.N.5X& * t j.a.t s.l.>.a a.l.=Xw t V.8.l.l.q.<.w 4.-XjXjXjXjXaXaX@X@XaXaXaXaXaX@X@XjX",
"zXzXzXzXzXjXjXjXjXjXjXjXkXkX$X8.4.4.w.:XN.N.5X1X1X8.e 5.j.e q r r r *.r w 5.:X0..X&Xk.s.j.5.=.,.*XjXjXjXaXaX@X@XaXaX@XaX@X@XaXaX",
"zXzXzXxXxXxXjXjXjXjXjXjXjXjXOX=.2X.Xw.n.8Xz.1X9X9X7.e e.w r w r 5.6.<.0.<X8X2X<X:X4XqX&X0X*.0 0 OXjXaXaXaXaXjX@X@XaX@X@XaX@XaXfX",
"zXxXxXxXzXxXjXjXjXjXjXjXxXxX$X&.&.&.2Xq.z.4X<X:XeX2Xn.t 5.r q 2.w.5.<.>Xn.8Xz.8Xn.z..X3X0X0X. }.aXaXaXaXjXjXjXjXjX@X@X@XfXfXfXfX",
"xXxXxXxXjXjXjXjXjXjXjXjXxXxXjX* =.r 9.m.&.m.z.&.&X5X6Xj.a *.w 2.w.7.n.<X2X<X5Xx.1X4X8X3X8X0Xt jXaXaXaXaXjXjXjXjXjXjXjX@XfXfXaXaX",
"xXjXjXjXjXjXjXjXjXxXjXjXxXxXxX* t q 4.n.r &.<.-.x.k.x.a.s.% ;.w x.>Xn.8X8X5X8X5X9X3XqX4XqXwX&XsXaXaXjXjXjXjXaXjXjXjXjXjXaXaXfXaX",
"xXjXjXjXjXjXjXjXjXxXjXjXxXjXjX0 ;.* z.w *.2.t t j.s.e B.e y 5.* b.=.<.9.m.qX&X9X7X6Xz.8X4X0.&X-XjXaXjXjXaXaXaXaXaXaXaXaXaXaXfXaX",
"xXjXxXxXxXxXxXxXxXxXxXxXxXxXxX$Xa % :.% w f.7 : v.:.;.t d.g   ; 0 ,.9.x.q.qXn.8X1X4Xq.q.w.e.7.>.-X@XaXaXaXaXaXaXaXaXaXaXaXjXfXaX",
"xXjXxXxXxXxXxXxXjXxXxXxXxXxXxXxXa.<.*.t + i : Y.A h xXxXjXjXxXo y B.s.a.5.c.2X6.z.qX4X:X4.8X&X&X0X*XsXaXaXaXaXjXaXaXaXaX$X$XaXaX",
"xXjXxXxXxXxXxXxXxXxXxXxXxXxXxXd.&.1.s.d z P o U z i xXsXsXxXsX: *.9XB.j.a.l.j.7.e.qX:XeX&Xq.>.XX3X3X%XaXaXaXaXaXaXaXaXaXaX$XaXaX",
"xXxXxXxXxXxXxXxXxXxXxXxXxXxXxXxXt g xXsXxXh z x Y.1 aXxXxXsXh , S 3 X rX*.a.a.s.1.5X6.,.&.&.>.N.n.5.y aXaXaXaXaXaXaXaXaXaX$XaXaX",
"xXxXxXxXxXxXxXxXxXxXxXxXxXxXjXjXxXxXxXxXjXxXxXo U H : p p E p z A 2 2 > sXr 9.9.<Xq.4X4X0X1.l.l.a.*.a aXaXaXaXaXaXaXaXaXaXaXaXaX",
"xXxXxXxXxXxXxXxXxXxXxXxXxXxXxXxXxXxXsXsXsXsXxXaXx 2 T R.R H z H P 2 o u sX& 1.6.>.j.z.5.q.t g +Xl.w g.sXaXaXaXaXaXaXaXaXaXaXaXaX",
"xXxXxXxXxXxXxXxXxXxXxXxXxXxXsXsXsXsXsXsXsXsXsXsXh o : P P I 1 J T S z  XaXsXa * = > a s s +XaXaXaXaXaXsXsXsXsXaXaXaXaXaXaXaXaXaX",
"xXxXxXxXxXxXxXxXxXxXxXxXxXsXsXsXsXsXxXsXsXsXsXsXsXh : X x H 1 H U H , aXaXaX. & * s +XsXsXaXaXaXaXaXaXsXsXsXsXaXaXaXaXaXaXaXaXaX",
"xXxXxXxXxXxXxXxXxXxXsXsXsXxXxXxXsXsXsXsXsX$XxXsXsXsXdX: o x x R U H 2 h OX&.<.4.4.<..X&X-XsXsXsXaXaXaXaXdXdXaXaXaXaXaXaXaXaXaXaX",
"xXxXxXxXxXxXxXxXxXxXsXsXsXsXxXxXxXsXsXsXsX+XzXsXxXxXO : u , z z H 1 z 9 & 6.:Xq.5X<X0.>X0.sXsXsXsXaXaXaXdXdXaXaXaXaXaXaXaXaXaXaX",
"xXsXsXsXsXsXsXsXsXsXsXsXsXsXsXsXsXsX XW W F D N Z j j N O X o H , X , o X w 2.j.a.a.9.=.-.dXsXsXsXsXaXaXdXdXdXdXdXdXaXaXaXaXaXaX",
"sXsXsXsXsXsXsXsXsXsXsXsXsXsXsXsXsX Xm ~ ~ ^ V ! V l b n < J S R 2 < o X , f d +XaXOX+Xh +XsXsXsXsXsXaXdXdXdXdXaXdXdXdXaXaXaXaXaX",
"sXsXsXsXsXsXsXsXsXsXsXsXsXsXsXsXsXcX~ ! V B l m l n V V @ R T E.< o O o 1 J h sXsXsXaXaXsXsXsXsXdXdXdXdXaXaXaXaXdXdXaXaXaXaXaXaX",
"sXsXsXsXsXsXsXsXsXsXsXsXsXsXsXsXsXsX~ ~ V v l l V V n b F R Y.E.J A A p 1 p sXsXsXsXsXsXsXdXdXdXdXdXdXdXaXaXaXaXaXaXaXaXaXaXaXaX",
"sXsXsXsXsXsXsXsXsXsXsXsXsXsXsXsXsXsX! n B l B k v v k B M < P G.K p , K G z f h g.dXdXdXdXdXdXdXdXdXdXaXaXaXdXdXaXaXaXaXaXaXaXaX",
"sXsXsXsXsXsXsXsXsXsXsXsXsXsXsXsXsXsXL Q V l n C ~ ! Q U L.J S Y.T K f 3 A ) I H J ` h.dXdXdXdXdXdXdXaXaXaXaXdXdXaXaXaXaXaXuXaXuX",
"sXsXsXsXsXsXsXsXsXsXsXsXsXsXsXsXsXsXH / W.W.!.!.NXNXBX' +.S P T E.Y Y < 3 6 | C.C.r.t.pXdXdXdXsXaXaXaXaXaXaXdXdXdXaXaXaXuXuXuXaX",
"sXsXsXsXsXsXsXsXsXsXsXsXsXsXsXsXuX- J mXBXR.VX~.NXMXNX5 J 2 2 S T i i J < u _ } O.` y.u.p.dXdXdXdXdXaXaXaXaXdXdXaXaXaXaXuXuXuXaX",
"sXsXsXsXsXsXsXsXsXsXsXsXsXsXsXy.} - > ^.!.NXNXH.~.~.Q.> 3 C.K.U G., X i J H.nXQ.U.#.i.} t.v.dXdXdXdXdXdXaXdXdXdXaXaXaXaXyXyXaXaX",
"sXsXsXsXsXsXsXsXsXsXsXsXsXsXI.[ ( t.7 Q.~.NXY.P !.G.3 : 2 Z.C.R H 2 2 A.T T K U.Q.mX!.nXnX'.bXdXdXdXdXdXaXdXdXaXaXaXyXyXyXyXaXaX",
"sXsXsXsXsXsXsXsXsXsXsXsXsXsX} _ ( L.y.L.L.F.~.!.R.Q.|.J J +.J.T C.> < !.F.U H.` G K nXmXmXmXnXnXuXdXdXdXdXdXuXuXyXaXyXaXaXaXaXaX",
"sXsXsXsXsXsXsXsXsXsXsXsXsXsXO.) _ 4 5 r.K.} Q.R.T.L. XR.F.J.$.T A.Z.F.T Q.F.P L 6 2 L nXQ.mXBX{.I.yXdXdXuXdXdXuXyXaXyXaXaXaXaXaX",
"sXsXsXsXsXsXsXsXsXsXsXsXsXsXd .._ [ [ g ] ' F.| 7 u ; R.Z./._.I O./.O.+.| I p.p.' 5 L f Q.BXVXI.yXyXuXuXuXuXuXuXyXyXyXyXuXuXuXuX",
"sXsXsXsXsXsXsXsXsXsXsXsXdXdXdX4 } ) _ ( ( 6 ` 6 ] s 6 Y.) S./.H.O.(.).i.t.).u.t./. .' t.' i._.uXyXuXuXuXuXuXuXuXuXyXyXyXuXuXuXuX",
"sXsXsXsXsXsXsXsXsXdXdXdXdXdXsX= { # ..( F.` ( 5 - ( - { O.).D.(. .'.J.@.O.O. .M.i.O.' @.t.`.{ uXiXiXuXuXyXuXyXyXuXuXuXuXuXuXuXuX",
"sXsXsXsXsXdXdXdXdXdXdXdXdXdXdXtXs # # _ } ( ( ( _ [ _ L.+.].J.@.M./.@.(.M.$.S.O.u.t.i.).(...pXuXuXuXuXuXuXuXyXyXyXyXyXyXpXuXuXuX",
"sXsXsXsXdXdXdXdXdXdXdXdXdXdXdXdXpX- # # #.O.( _ ( _ _ @.@./.t.i.$.+.M.+./.).$.O.M.M.).D.X.} uXuXuXuXuXuXuXyXyXyXyXyXyXyXyXyXuXuX",
"sXdXdXdXdXdXdXdXdXdXdXdXdXdXdXdXdXg.d # 5 # 4 @.[ ( X.D.L.[./.M.O.M.+.M.M.`.`.`.S.[ ..X.[ g.uXuXuXuXuXuXyXyXyXyXyXyXyXyXyXyXyXuX",
"dXdXdXdXdXdXdXdXdXdXdXdXdXdXdXdXiXiXiXh.$ 5 ) # $ ) X.{.CXVX[.u.(.`.(.D.o.S.D.D.+.X.@.#.h.uXuXuXuXuXuXyXyXyXyXyXyXyXyXyXpXyXyXyX",
"dXdXdXiXdXdXdXdXdXdXdXdXiXdXdXdXiXiXiXiXg.{ [ 8 [ [ X.# [./.$...o.%.o.S.o.X.o.%.o.o.y.uXuXuXuXuXuXuXuXyXyXyXyXyXyXyXyXyXyXyXyXyX",
"dXdXiXdXdXdXdXdXdXdXiXiXiXiXdXdXiXiXiXiXiXpXh.{ ) ( o.# D.D.@.o.S.S.o.o.X.....D.S.K.pXuXuXuXuXuXuXuXuXyXyXyXyXyXyXyXyXpXyXyXyXyX",
"dXdXdXdXdXdXiXiXiXiXiXiXiXiXdXiXiXiXiXiXiXiXiXiXr.| #.# o.X...o.%.S.S.7 6 C.S.K.iXiXiXuXuXuXuXuXuXuXuXyXyXyXyXyXyXyXyXyXpXpXyXyX",
"dXdXdXiXiXiXiXiXdXdXdXdXiXiXiXiXiXiXiXiXiXiXiXiXiXiXdXpX@.Z.X.I.I.tXpXpXuXiXiXiXiXiXyXyXpXpXyXuXuXyXyXyXyXyXyXyXyXpXpXyXyXyXyXyX",
"iXiXiXiXiXiXiXiXdXdXdXdXiXiXiXiXiXiXiXiXiXiXiXiXiXiXiXiXiXiXiXiXiXiXiXiXiXyXyXyXyXyXyXyXyXpXyXyXyXpXpXyXyXyXyXyXpXpXpXyXpXpXpXpX",
"iXiXiXiXiXiXiXiXiXiXiXiXiXiXiXiXiXiXiXiXiXiXiXiXiXiXiXiXiXiXiXiXiXiXiXiXyXyXyXyXyXyXiXiXiXtXtXpXpXpXpXpXyXyXyXyXpXpXpXpXyXpXpXyX",
"iXiXiXiXiXiXiXiXiXiXiXiXiXiXiXiXiXiXiXiXiXiXiXiXiXiXiXiXiXiXiXiXiXiXiXyXyXyXyXiXiXiXiXiXiXiXpXpXyXpXpXpXyXyXpXpXpXpXpXpXyXpXpXyX",
"iXiXiXiXiXiXdXdXiXiXiXiXiXiXiXiXiXdXiXiXiXiXiXiXiXiXiXiXiXiXiXiXiXiXiXiXiXiXiXiXiXiXiXiXiXiXiXpXpXpXpXpXpXpXyXpXpXyXyXyXpXpXpXyX",
"iXiXiXdXiXiXiXiXiXiXiXiXiXiXiXiXiXiXiXiXiXiXiXiXiXiXiXiXiXiXiXiXiXiXiXiXiXiXiXiXiXiXiXiXyXyXiXiXpXpXpXyXpXpXyXpXpXpXpXpXpXpXpXpX",
"dXdXdXiXiXiXiXiXiXiXiXiXiXiXiXiXiXiXiXiXiXiXiXiXiXiXiXiXiXiXiXiXiXiXiXiXiXiXiXiXiXiXiXiXyXiXiXiXiXyXyXyXpXpXpXpXpXpXpXpXpXpXpXpX",
"dXiXiXiXiXiXiXiXiXiXiXiXiXiXiXiXiXiXiXiXiXiXiXiXiXiXiXiXiXiXiXiXiXiXiXiXiXiXiXiXiXiXiXiXiXyXiXiXyXyXyXyXpXpXpXpXpXpXpXpXpXpXyXpX"
};
