/* XPM */
static char * floor64_xpm[] = {
"64 64 4 1",
" 	c #C0D470",
".	c #A4C263",
"+	c #EAE178",
"@	c #D2E077",
"                                                                ",
"                                                                ",
"                                                                ",
"                                                                ",
"            ..........                                          ",
"            ..........                                          ",
"        ................                ++++                    ",
"        ................                ++++                    ",
"      ..................              ++++++++                  ",
"      ..................              ++++++++                  ",
"      ..................                ++++        ++++        ",
"      ..................                ++++        ++++        ",
"        ..............                            ++++++++      ",
"        ..............                            ++++++++      ",
"                                                    ++++        ",
"                                                    ++++        ",
"                    ......                                      ",
"                    ......                                      ",
"    ........      ..........                                    ",
"    ........      ..........                                    ",
"  ............    ..........                ++++                ",
"  ............    ..........                ++++                ",
"  ............      ......                ++++++++              ",
"  ............      ......                ++++++++              ",
"    ........                                ++++                ",
"    ........                                ++++                ",
"                                                                ",
"                                                                ",
"                                                                ",
"                                                                ",
"                                                                ",
"                                                                ",
"                                                                ",
"                                                                ",
"                                                                ",
"                                                                ",
"                                                                ",
"                                                                ",
"            @@@@@@@@@@                                          ",
"            @@@@@@@@@@                                          ",
"          @@@@@@@@@@@@@@@@                                      ",
"          @@@@@@@@@@@@@@@@                                      ",
"          @@@@@@@@@@@@@@@@@@              ++++                  ",
"          @@@@@@@@@@@@@@@@@@              ++++                  ",
"          @@@@@@@@@@@@@@@@@@            ++++++++                ",
"          @@@@@@@@@@@@@@@@@@            ++++++++                ",
"            @@@@@@@@@@@@@@                ++++                  ",
"            @@@@@@@@@@@@@@                ++++                  ",
"                                                                ",
"                                                                ",
"      @@@@@@@@                                                  ",
"      @@@@@@@@                                                  ",
"    @@@@@@@@@@@@                                ++++            ",
"    @@@@@@@@@@@@                                ++++            ",
"    @@@@@@@@@@@@                              ++++++++          ",
"    @@@@@@@@@@@@                              ++++++++          ",
"      @@@@@@@@                                  ++++            ",
"      @@@@@@@@                                  ++++            ",
"                                                                ",
"                                                                ",
"                                                                ",
"                                                                ",
"                                                                ",
"                                                                "};
