/* XPM */
static char *c31261d17b014158aa1ac91c9fe75351IaTXP8PT6L2IkOTj[] = {
/* columns rows colors chars-per-pixel */
"64 64 236 2 ",
"   c #255A0F",
".  c #25540C",
"X  c #265F12",
"o  c #2D5C14",
"O  c #335D14",
"+  c #36591B",
"@  c #365916",
"#  c #284D1A",
"$  c #24650A",
"%  c #276B0F",
"&  c #2C6C0D",
"*  c #2B650F",
"=  c #326C0E",
"-  c #3A6B0E",
";  c #34640E",
":  c #2D750E",
">  c #33730E",
",  c #3A750E",
"<  c #3A7B0E",
"1  c #36790D",
"2  c #2C6312",
"3  c #2D6C13",
"4  c #2C6A19",
"5  c #276010",
"6  c #326414",
"7  c #3A6314",
"8  c #346C13",
"9  c #3A6D14",
"0  c #34631B",
"q  c #3B651B",
"w  c #346C1A",
"e  c #3B6C1B",
"r  c #2D7012",
"t  c #2F731A",
"y  c #357313",
"u  c #3B7414",
"i  c #367A13",
"p  c #3C7B14",
"a  c #35731A",
"s  c #3B741B",
"d  c #377B1C",
"f  c #3C7B1B",
"g  c #3C5E20",
"h  c #3D6622",
"j  c #366C23",
"k  c #3C6C23",
"l  c #366B25",
"z  c #367420",
"x  c #3C7422",
"c  c #3D7B22",
"v  c #36702B",
"b  c #3D7B2A",
"n  c #3A7925",
"m  c #3E7B31",
"M  c #407B0F",
"N  c #406D15",
"B  c #42641B",
"V  c #436B1D",
"C  c #4C651D",
"Z  c #427514",
"A  c #437C15",
"S  c #4A7D17",
"D  c #42741C",
"F  c #49741E",
"G  c #437C1B",
"H  c #4B7C1D",
"J  c #517E1D",
"K  c #415F23",
"L  c #436D23",
"P  c #4A6D24",
"I  c #466A28",
"U  c #437423",
"Y  c #4B7424",
"T  c #447C23",
"R  c #4A7C23",
"E  c #42742A",
"W  c #4B752B",
"Q  c #447B2B",
"!  c #4B7C2A",
"~  c #517C24",
"^  c #537C2C",
"/  c #547527",
"(  c #437C32",
")  c #4A7B32",
"_  c #557732",
"`  c #3D830E",
"'  c #3D8214",
"]  c #3D821B",
"[  c #3B8419",
"{  c #3E8223",
"}  c #3F8329",
"|  c #43840E",
" . c #468B0F",
".. c #4C8B0E",
"X. c #4C940F",
"o. c #549B0F",
"O. c #438315",
"+. c #4A8516",
"@. c #458A14",
"#. c #4B8C14",
"$. c #44841B",
"%. c #4B841C",
"&. c #458A1C",
"*. c #4B8C1C",
"=. c #518B14",
"-. c #51851E",
";. c #528C1C",
":. c #588C1A",
">. c #479017",
",. c #4C9115",
"<. c #4E931C",
"1. c #4F9812",
"2. c #529414",
"3. c #549C13",
"4. c #53931C",
"5. c #59941D",
"6. c #559B1C",
"7. c #5A9C1D",
"8. c #5A9E16",
"9. c #629D1B",
"0. c #5CA90F",
"q. c #5BA117",
"w. c #55A11C",
"e. c #5CA21C",
"r. c #5CA817",
"t. c #62AA17",
"y. c #62A61B",
"u. c #62A81C",
"i. c #6AAC1F",
"p. c #6BB81C",
"a. c #458323",
"s. c #4B8424",
"d. c #468A23",
"f. c #4B8B23",
"g. c #45832B",
"h. c #4B842B",
"j. c #468A2C",
"k. c #4C8B2B",
"l. c #528323",
"z. c #538C24",
"x. c #5A8C24",
"c. c #52832A",
"v. c #538C2B",
"b. c #5A8B2C",
"n. c #5A8527",
"m. c #4D9224",
"M. c #4F9926",
"N. c #4E922B",
"B. c #4F992A",
"V. c #539424",
"C. c #599425",
"Z. c #559A24",
"A. c #5B9C24",
"S. c #53942B",
"D. c #5A932C",
"F. c #559A2C",
"G. c #5B9C2C",
"H. c #448133",
"J. c #4D8532",
"K. c #4D8C33",
"L. c #4B8239",
"P. c #4C8E39",
"I. c #538332",
"U. c #598232",
"Y. c #548C32",
"T. c #5B8D34",
"R. c #528D39",
"E. c #5C8C3A",
"W. c #58863D",
"Q. c #4F9332",
"!. c #4F9936",
"~. c #549332",
"^. c #5B9532",
"/. c #559A32",
"(. c #5B9C33",
"). c #56943A",
"_. c #5B953B",
"`. c #549A3C",
"'. c #5C9D3B",
"]. c #61882B",
"[. c #61952A",
"{. c #619C2B",
"}. c #619624",
"|. c #639631",
" X c #629C33",
".X c #64953B",
"XX c #629E3C",
"oX c #6B9D3C",
"OX c #699937",
"+X c #5DA223",
"@X c #57A12C",
"#X c #5CA22C",
"$X c #5BA627",
"%X c #5DA234",
"&X c #5FA936",
"*X c #5DA239",
"=X c #5EAA3C",
"-X c #63A424",
";X c #64AB23",
":X c #62A52C",
">X c #6AA42C",
",X c #65AB2C",
"<X c #68AA2D",
"1X c #6EAD24",
"2X c #6BB325",
"3X c #78B12C",
"4X c #62A434",
"5X c #64AA33",
"6X c #6AAD34",
"7X c #63A33C",
"8X c #66AB3A",
"9X c #6BAD3B",
"0X c #6BA33B",
"qX c #74AD3C",
"wX c #6CB233",
"eX c #69B23E",
"rX c #73B43E",
"tX c #578D41",
"yX c #5C9A42",
"uX c #6A9B42",
"iX c #649B42",
"pX c #5EA240",
"aX c #62A242",
"sX c #6CA343",
"dX c #6CAD43",
"fX c #6EA74A",
"gX c #66AA4A",
"hX c #6CAE4C",
"jX c #65AA45",
"kX c #70AC47",
"lX c #6BB243",
"zX c #6FB048",
"xX c #72B34B",
"cX c #77B848",
"vX c #7DAD50",
"bX c #70B351",
/* pixels */
":Xk.'.S.*.9XG.G.<Xm.7.:XD W.Y ! 2.' (.e.<.%.U <.Z.2X5Xv.p S.7X#.+.-XT ) w ~.<.Z.4Xh./.+X/.+X7.G.Z.A.>Xs.y f.h.4.` S.Z.<.&.G.D.:X",
"y.' O.f s V.u.*.,X' O.A.V.G.Y H 2.z.O.>.Z.s.C.@.*.5Xf.y { i N.a.s.x.<.s.O.> p 8.#.O.u ] G -X,.5X>.i 5.<.:Xu s.2.V.G @.<.m.Q %.p ",
"n f G.J.J.a s <Xa.s.v.~.k.s.m.+X,.c.Z.+Xy @.5XV.a.f =XlXrXB.y ] ~.#.o.i s +Xf g.8 f.Y.! Q w 7.k.z.a.K.B.T e.4.,.D.z.-X] p A.V.T ",
"L.a.e.U E V.k.A.*.%.v.i C.O S.' | 7 f m.S.$.V.S.F.@.y d.a S.d.*X~.f.p %.;X0.' tXx 7.H q D.V.C.A.S V.i F.q k.O.< N U $.G.O.p @Xd.",
"^.f.F.a.~.S.+.$.z.L %.r %.Z :XhXs.^ (.4.&Xd.&.B.$.$.f ^.6 <.5Xf.+XG Y.q i.w.' S.s.A.f.~.'.#.$.%.Y ;.y $.F 6.zX^.~ ~.4.#XS.] d.s.",
"A.e.;X*.5.D. X8 C. Xu.O.(.7Xi R H h.hXa.' *.' d.F.d.G G e 7Xf.y -.0 ' f.c ~.e z.e.r.*.9.v. Xs f. Xi.$.V.7Xf.G %.Q pXK.&.@.O.] &X",
"s Z.@.@.3.<.D G 5X5., h.cXz.2.A b.x %X~.&.k.f.,XG.j.:X*.v.f.;XF.D.~.e f.$.S.g.n 7.O.@.3.6.D D %X-XZ f hXV.A. .F R ~.(.Z.O.d.A.G.",
"> F.w & A.u k.5Xf 2.<XA.%Xf.*.:X(. X;Xs.=._ ^ 9XF.S.R  Xv.$.z.6 :XS.O c Z.f.*Xi $.k.3 @.f.s 9X] +.+XA.9X$.*.-XaX^.,X*.+.` *.(.*X",
"f.k.@.s 4.T g.(.w 8 &.#.d.a Y.c.V.XXwX7.Y.G.v.d V.a %.qXvX5XG.q.7XaX5XG &.X w G '.@.y *.$.U 7Xa 9 O.@.m.f a.Y.}.k.6Xq.^.S.C.x f.",
"L.v J.R 4.s.f.aX:XR (.s.G J.+.V.s.f f.R c.] *.d.4X$.O.;.v.Z.zX] O.U F.S ' a.g.( g.q.s.=.$.f.XX4X%.(.v.s.Q %.4.z.e S.D D.f <.p wX",
"0 ! h.k.G B :XD.f.R g.U V l.+.{.f.~.l.-.W A.A.^.S.cX~.S.7.z g.v.^._.hXa.8 s d.e L.Z.m.a.+ F.4XV.g.a.I.q Y 4.*.G.h.S.J R ^.A.4X%.",
"iX).9X4.b.S 2.2.6XS.5.s.s.D.T f O.7.G y.O.i f F.4.S.o *.A.k Q 9 <.Z.q *.$./.W .XE.7X&.z.G #.+.,X(.C.*.F z.T.f u ;Xf 7.4.= y f.Z.",
"c.(.+.s..X;.%.@.Y.R.*.s.^.f $.c 6.e.^.6.a p $.: +XkXx.=.u I.O.y &.s z.A %.a.! R 9X*.T U.G.y #.D.Q S.$..X$.] s f.t.S.A.u s O.i @.",
"4.i (._.Y.x.C.i V h.k.S.5X5Xf k.'.@.[ 2 z.v.C.Q O.4.4Xp @.[ ' S.gXc ~.*.`.G .Xn.4.$.(.J.D.p ' 0 ! f.f.6X5XO.N.F.$.&.a w S.#Xk.d ",
"#X6.sXY.c.z.' /.v.G a.*.m.~.S.~.p *.k.c f.6.A.d.f <.S.m.cXdX&.&.rXQ.F.$.G s Z.z.+X4X(.Y z.%.S.{.G 8 Z.&.aX$.'.] $.S.c T Z.3.S.a.",
"E *.:X4.G S.s d U ! V.y &.s.z.f & ' G &.g.O.O.R $ < V.$.8Xm.[ *.e k.$.d.<.E.b j S.m.+XZ f.s.a k.e |.y &.f C.*.* ' %.$.} ] @.~ 2 ",
"( _.2 *.V.Z.-XA.<.z.G.*.k.D +XV.` i 8 V.) 8 e.].s k.c f (.k.a /.G E.^.k w f.j.m yXx p G.*.-Xu.6.C.C.7.a.E 4.Z.@.i 2 Z.T q 2.OXH ",
"Q.z.) u h.d.8X&.: S P <.f.H <.s.Z u O.*.s O.S.*.4.z.N.v.V.f.b f.7Xu c.6 s 6 S.a.:Xh s x &.*X#X$ $.C *.V.-.p F.9 u p O.G p S.%.4.",
"U R F.U Q s.$.A ] O.%.O.Z.O.y $.A ` A @.V 9 8 f.D.s.A.4.=.*.*.}.%.y 4.%.^.0XJ.c ! D.H U v.a.*.f i z.p 4.4., %.A ' - 3.s D O G G.",
"R i s.~.3X7Xs.Y.G s.0 G +.#.U G m.i 2.` 6 S Y s G f.m.Z.v.D ! P 9X< O.4.F R W c.9 s.k.<X9Xs.~.G f.Q w +.#.s.e *.&.#. .6 9 H E S ",
"d.' F.O.> 6.+Xi d.(.F w 0 #.>.$.y y s s ] 8 T.6.#.Z - 8 *.+Xy R w c a R.s.*X#X$.&.*.*.< O.,XO.a.N.b.6 0 l.#.&.y y s u d y f.{.#.",
"a O.*.Y G 9X(.k.i :Xh.*.e +.#X;., i $.U z.x O $.z./ V $.N.V.f.8 p ] ] H *.Z.i 8 ] O.l.s (.(.D.f A.v.m.s l.4.G.| y a.D k.h.7 G p ",
"f.A.T V.> w u w '.m.4X; 2 = $.%.< /.*.9 6.(.& y S F %.f.b.x.S.A.O.y y $.#.A s.$.+Xv.f.O.6 G e K.m.4XA.$.R 4.s.+.S.v.S @.5Xu   %.",
"/.a.W ).k.e R F $.%.T 6 O.u u $.p w u ~.m.@.| y 7.F.A.f.+.2.G T Z.v.q +.f.v.*.4Xf ^ R.h.T R e <.$.D A G p u 7 #.y y V.S.O.| | *.",
"v.2 d J.'.f.a.u p *.s.:.4.6 A l.A e D v./.A A p u Y ;.*.z.x.T.A A m.S.*.} k.f ~.w 4 b aXs.s.u f +.C.p %.p A 6 u G 9 z.~.*.G ;.s ",
"N.R s d.@.f./.A.| O.~ J F G p s.T uXp G f.s.P :.;.F  XA / 4.z.0 f.*.'.&.x h.Z.D.a.s f <.p @XD...#.n., , y R Y ~ .XT O.*.*.Y E.C.",
"F.<.i j.K.~.V.y @.9 p V.6.9Xm.#.z.9 8 p a.G ..D.! u x.].v.S.7.D.y %.g.&X&.w v.Z.V.' n P._.Z.u #.%.S f +.*.Z *.R = 9 y e g.=.OXY.",
"a.*.i d a.N.$.H e c.A f f +.i &.Z.p O.8 e ;.*.e D.Z f.Y./.^ D.g.f.S.3 S.<.9 4.$.d ' a { D.u f.F E [.i G O.U b.I.u ' y O H #.T c.",
"D.$.p f d ~.j.D.p 8 ,.p y p +.A A p Z I q V 7 T G R m.<.F.Y F 9Xc f.2.dXa.C.1 p &.*.c d ~.s '.$.8 %.#., +.h.f ^.2.*.W + Y 9 D p ",
"+X:Xu S.L u h.I.O.+.*.@.> Z.<.< %.f.9 Y $.$.s R %.8 Z.u kXz.! l.s u O.(.c #Xf dXs.g k.c.e G Y.G ;.-.V.Z 9 u u $.S n.H %.p G U %.",
"D.D.f.a.H 2 i 6 A +.f.f F.s 9 $.G ).%.#.<.s.G.^.4X$.s V U R _ U.tXI.c m.f G.s V.R U R Z e i 9 s z.+./ F.R 8 G u f T.4.<.;.Y.S.8X",
"D *.$.s.V.c a.e O.p f.& G.f.H f.. 0 a.h A.m.y *.<X;.+.-.G ! ) sXU A.j.d.f.R x c B u s.9 s a.XXT u wXU A.f.l.z.= . T e F.V.8 f.-X",
"u y #.Z.> O.O.2 O.G p 7X^.G *., y s r e = w O.> $.2.;.D +.h.L s.M.'.{ 0 G %.*.K.&.4 b e h j.u 9 V.(.G T.C.` p E 8 Z D 9 O G Z.Z ",
"#.+.+.S u -.s D S G D %.s.S f.8 8 V.S.,.@.6.,.8 *.+X,.+.$.s f.G.u d.~.G S.A.k.k.f.m.s g.= U ^.V.s.s a s *.O.D.s T x.Y V *.O.*.s ",
"O.8 < V.4.O.T k %.' x ~ *.S A *.O C.b.l.x.U.$.o s.7.$.f.] $.O.m./.m.6.S.z.{ u.8 $.<.O.w (.G &.V.M.p d S 8 < <.$.P ! *.2.q.>.K.l ",
"+.$.N.%X&.O.s.m.p O.$., +.7.%.G j.s.G.t.o./ G.q ( a { 2 S.5XlXk %Xa.5XZ.$.T p S.! 7 I.s m.G.).#X*.D f p @.a.;X2.I.S < G.@.@.G m.",
"> f.gXa.m.k.f $.d p p $.C.7.A s y Y R 9 | *.1XQ b f N.7.+Xf.k.Z.<.4XA.A.6X*.A.>XG e f.a.5.u e ).d.F.9X*.$.d f.A.f.8 p 4.z.k.p &.",
"T m.j.a.w A.6.A.$.m.< s R e.+.U T Q (.F.k.a.C.' *.O.= p 4.@.O.w s s -X>.G.' $.>.z.<X*.,.2.z.O f f.6.#X/.S.(.k.<.b w R %.U Z.6.A.",
"dXB.: d d { X ] B.~.9 f.(.$X2X2.d.jXD.#.s.G.#.X.s *.+Xc ( 4 4.J.Q Q a -Xk.*.Y.~.M.s <.7.*.%.A.;Xf.` $XA.*.c i &.f A s.4XO.a.  O.",
"a F.M.&X%XN.a u &.m.T lXj.c F.*.f k.{.+.m.a.u N s.p.0.&.W.s.6.Y T 4XC.C.Z.F z.i G.O F.$.p N $.6.Z.f ;.f.V %.Z.&.w d.f D.f.N.8 A ",
"e V.m.a.-XU f.#.h.a.3 c Y.3 *.@.6 Y.g.8XS.&.O.^.e :X@.y {.*.A.&.F.S.A ' z.U.s.8 O.s <.hXC.E.'.V.<.<.#.+.Y G #.A.e ~.e y 4.U f.#.",
"A (.#X$.l.6 <.A.#.d V.R s.R -XS.Y.6.#.7Xi *.z.f.$.g.K.l *.+X6.O.9.S.4X6 <.z.y.<. X7X;.F s.s gXk.$.m.[ M.eXI.+.*.) S.:Xu %.e <.+X",
"x.] 7.Y.4X/.0 s T.w i $XZ.y p 2X+XO.f.8X3 i D *.4.Z.G R.a -X$.' 8.>.e %.5X-XZ f cXS.4. .R ! %Xd.*.s.z.Z.m.[.l.= G R %.Q a.^.6 e ",
"|.*.m.S :XN.U T :XV.s ] m.j 2 6.%Xf.G.5X6.&.$.O.d Z.a.Q.> a.a.> Z.T g.9Xw O.<X+X%X$.Z.+X7XS.2XG S Y E.(.5Xm.p V.z.c.V E f.u , s ",
"uX6X4X,.(.yX&X$.p *.$.$.A.f.g.=X$.q.&.f #.' A O.O.]   s h.K.p s ,.f.U '.a.6 *.4.f.T c.b.;.k.6Xw.^.m.H 6 V.8 *.S.$.f A.8 ! G 5XO.",
"f.F.xXN.*.e D.$.$.m.a.f $X#XT !.y p y K.d.Y.j.' s f ! a.H.v K.v.4.R f.7X5XG (.h.%.Q +.A.v.x S.e l.f.Z.f.9X4.Z.G A.f.G.u *.y /.*.",
"6.s v z.l.XXdX~.G.S.g.# c 4 S.( i A + E s A.$.A p s 6 f.o Q m.S.u q A.S.f.R U Q L %.;.V.f.D.G 5.F f.Z.4X$.cXg.S.,.f j a.h.XXfX^.",
"V.E H.8 <.V.e +.+.Z.a.pXA.w Q L d.k.x O.~.#X#Xw G s 2.R sXaXk.-.|.x.%.+.9X^.7.%.%.S.R A $.e.G e.%.u a f.<.^.0 2.f.J.m = <.V.q O.",
"w c.O.p d.4 f.A f.<.G h.+.$.T p $.d a.$.*.(.d.p u $.G c.R (.p c.E.b.^ @.T E m.f.oXG ' w #.7.^.*.s p O.> <.9X[.-.w g.O.f d.a m.A ",
"<.&.[ #XhXg.v.f.K.Z.<.v.G <.~.~.a.j y d a.{ $.$.p $.s .XA.O.~.'.v.{.C.S q k.a.Z.:X*X] /.'.m.i 4 a.v.5X~.a.O.G.y <.f.i Z.bXJ.d.S.",
"xXlX>.*.4X/.S.s $.p f a.Z. Xy R S.x Y iXd.j.K a A p k.V.*.Z.%X~.Y S.u S.D.R G $.$.~.f.~.p p /.s c -X>.G y @.G.S.xXzX@.&.:X%XM.f ",
"8Xd.r m.6 s.f h.O.f d.a.N.%X*.h.7X4X$.L dXz.= ~.c [ J.g.l Z.S.7.%.C.s.y T ! G.$.Z.G A.p % ' f f.h.s O.c.2 > <.d.9Xd.3 Z.6 s.d j.",
"~.S.c S.T T.XXh w Z.M.F.V.k.7.Z.<.Z.p f.y +X3.i d % *.J.v ).w i f.*.6X;X<.s.C.4.j.e *.S.,., ; <.h.9 7.b.G V.k.2 ~.~.c (.f T.'.I ",
"*.*.g.O.7X8 h.6 x #X' #X(.] f G y &.s.F.V.,.O.+X*XV.k N.j.G.E D g.S.5Xm.% *.V *.{.+.+.v.8 A u O.9 u m.V.A.$.h.4X4.*.k.&.(.8 c.6 ",
"%.G f.4.;.+.@.*.h h.k.8 G %.(.'.~.$.c $.f.u x.$.T  XfXQ T D S.R ! s.s *.$.f z.O.V.O.y %.+.' Z 1.e Z 0 s z.f.A.A.H +.%.l.s.+.@.%.",
"b.G s.O.:Xp p 4.i G x.u $.4.d.~.*X#X<.S.r h ~ y x Y W ^.v.' f.~.1X%Xs.k.f &.0 e =.5.G T f.p 3.> * Z b.R ;.p $.+.^.H k U 4X' p *.",
"f.-X' a 6 f z b $.e 9 f.f.f.g.7X{ _.7.@.k.G z.G.G h.8Xz.s d *.O.> <.6Xi T #Xs.w h G ,.*.8 y c f k.6 ! A.#.H - 2 m.+Xp e w f a z ",
"V.z.f.u @.{ $.V.R %.Z.h.u d.gXG.N.<.Z.m.jX*.' G G O.s.$.w <.*.^ G (.f.k.f <XT.V.f x.Z.z.| i f.q v.E 6 s G ].B p D.z.s.u @.&.p V.",
"l.4.s.+X$.s 2 ' $.z.A.*.m.a.b /.A.7.F.k.S.6.p   G $.7.f.~.V.x V.i w f 0 ~.&. X*.R v.*.R p k.V.S 4.7X8 6 %.D 2.&.s.5.S.:X$.p 5 p ",
"m.=.Y T A./.e u p D G & Y.v.s.R.`.w y / k.d.S.R S.f.f.m.F.s h.K.g.e E D &.$.v.f Y O.q y p 6 u S.f.@.X.$.7.(.A.>.<.O.*.f A.%Xe y ",
"x.x.oXp G m.Z.Z.#.! c n c I E Q./.3.a y V.f.).(.f.k.~.c D.2 X Q 4Xf.C.G i <.s.y q p 9 w A s.u C.N.O.$.~.a V G.A ;.5.4XO.s *.G.Z.",
"Y <.*.L G $.~.G %.4.p (.v.N _ S.$.6X+X' p *.o <.O.6 T S.m.f.a.$.[ d.F.D.,.` u = R s.! s._ E.c O.m.G %.E.{.A 0XJ Y *.*.D s O.`.s.",
"S.S.-Xs.s f.! s e 6 %.^.R.*.4.+.*.V.5XZ.k.(.' z F.&.8 D.G.V.' d _.b.<.y O.F | S.*.F.f.V.k.s y u U s.C.oX! - x.n.V.D.<X$.G z.) ~.",
"'.W b.~.j.~.6 C.G D D b.W T 4.F.:X4XS.m.5X5X@.y (.S D O.f d p t a.S.f x.D ! [.p s O.y s f 3 f 6 o %.*.D v.-.s.Y XXU c.b.a.(.o y "
};
