/* XPM */
static char *fa030182ebfb4f13fdf57dbff367b555u5imUPihESKEFpr5[] = {
/* columns rows colors chars-per-pixel */
"64 64 169 2 ",
"   c None",
".  c #090707",
"X  c #140F0D",
"o  c #1D1912",
"O  c #231E15",
"+  c #29251A",
"@  c #362B1C",
"#  c #3D301B",
"$  c #383223",
"%  c #491B17",
"&  c #4F1E1E",
"*  c #4C1F20",
"=  c #5B1E20",
"-  c #5C2222",
";  c #4C3E2A",
":  c #523F27",
">  c #6B2624",
",  c #6D2B26",
"<  c #772726",
"1  c #7A2A2A",
"2  c #524328",
"3  c #584C2E",
"4  c #4D453C",
"5  c #54493E",
"6  c #5D5637",
"7  c #614F2D",
"8  c #65512F",
"9  c #6A562F",
"0  c #7F4631",
"q  c #665430",
"w  c #685633",
"e  c #6E5833",
"r  c #735E34",
"t  c #78523D",
"y  c #766135",
"u  c #7B6537",
"i  c #776138",
"p  c #7C673A",
"a  c #7E6838",
"s  c #574D44",
"d  c #594E41",
"f  c #695F50",
"g  c #6D6541",
"h  c #79684D",
"j  c #7D7247",
"k  c #6E6454",
"l  c #776B5B",
"z  c #7D6E5C",
"x  c #74675A",
"c  c #832B2B",
"v  c #8C2F2F",
"b  c #922F2F",
"n  c #92302F",
"m  c #953031",
"M  c #9B3232",
"N  c #933931",
"B  c #9C3A35",
"V  c #9D3C3A",
"C  c #A43534",
"Z  c #AB3736",
"A  c #AF3837",
"S  c #AC3C38",
"D  c #B23837",
"F  c #B43A39",
"G  c #BC3C3B",
"H  c #C33D3C",
"J  c #804131",
"K  c #924334",
"L  c #974E37",
"P  c #984335",
"I  c #965637",
"U  c #985035",
"Y  c #9B5439",
"T  c #9F5F3D",
"R  c #A04235",
"E  c #A3403D",
"W  c #AA4138",
"Q  c #A34F39",
"!  c #A05C3C",
"~  c #8E6039",
"^  c #836B3B",
"/  c #8D6B3D",
"(  c #96663E",
")  c #94683D",
"_  c #9C673E",
"`  c #8D733D",
"'  c #91753E",
"]  c #9B4642",
"[  c #876F41",
"{  c #8C7648",
"}  c #947A42",
"|  c #9A7E43",
" . c #866F5D",
".. c #816E55",
"X. c #81725D",
"o. c #937C53",
"O. c #A57142",
"+. c #AC7845",
"@. c #A57A43",
"#. c #847463",
"$. c #877966",
"%. c #8B7C69",
"&. c #8A7B67",
"*. c #907F6A",
"=. c #9E8144",
"-. c #97845F",
";. c #998256",
":. c #A28446",
">. c #A68847",
",. c #A58648",
"<. c #A3884F",
"1. c #AB8B4A",
"2. c #AB8B47",
"3. c #B38C4B",
"4. c #BB8A4C",
"5. c #B6854B",
"6. c #AF914D",
"7. c #B2924C",
"8. c #BA994F",
"9. c #AC8F52",
"0. c #A48956",
"q. c #A3965C",
"w. c #B89750",
"e. c #BD9C52",
"r. c #B4965D",
"t. c #948264",
"y. c #94836C",
"u. c #99836E",
"i. c #978771",
"p. c #988770",
"a. c #9B8A73",
"s. c #9F8E79",
"d. c #A28A65",
"f. c #A28D76",
"g. c #A48F78",
"h. c #A19176",
"j. c #A6937B",
"k. c #AD977F",
"l. c #AC987E",
"z. c #A99371",
"x. c #C29550",
"c. c #C29F52",
"v. c #CA9F53",
"b. c #C5A253",
"n. c #CCA455",
"m. c #CEA957",
"M. c #C6A459",
"N. c #C9A659",
"B. c #CDA959",
"V. c #D3AC57",
"C. c #D3AD59",
"Z. c #D8AF5A",
"A. c #D7B059",
"S. c #DCB35B",
"D. c #DFB85F",
"F. c #E0B75D",
"G. c #E3BA5D",
"H. c #E6BD61",
"J. c #E9BF60",
"K. c #EEC362",
"L. c #F0C461",
"P. c #A79780",
"I. c #AA9780",
"U. c #AD9B82",
"Y. c #B19E84",
"T. c #B5A187",
"R. c #B6A489",
"E. c #BAA68B",
"W. c #BAA68B",
/* pixels */
"                                                                                                                                ",
"                                                                                                                                ",
"                                                                                                                                ",
"                                                                                                                                ",
"                                                                                                                                ",
"                                                                                                                                ",
"                                                                                                                                ",
"                                                                                                                                ",
"                                                                                                                                ",
"                                                              $ O $ g                                                           ",
"                                                              6 + j q.                                                          ",
"                                                              . . o 3         i e                                               ",
"                                                              X O ^ C.      i e.a 7.u                                           ",
"                                                              :.V.K.L.b.    S.b.` K.K.V.6.7   } 2.2                             ",
"                                                              F.L.L.L.L.m.8.K.K.K.L.L.L.L.K.b.:.C.} p                           ",
"                                                            ^ L.L.L.L.L.K.# C.L.L.L.L.L.L.L.L.K.' 8.L.e.                        ",
"                                                            } K.L.L.L.L.L.L.L.L.L.L.L.L.L.L.L.K.3.K.L.L.                        ",
"                                                            u K.L.L.L.L.L.L.L.L.L.L.L.L.L.L.L.L.S.K.L.L.                        ",
"                                                              A.L.L.L.L.L.L.L.L.L.L.L.L.L.L.L.L.L.L.L.K.                        ",
"                                                              =.L.L.L.L.L.L.L.L.L.L.L.L.L.L.L.L.L.L.L.|                         ",
"                                                              2.K.L.L.L.L.L.L.L.L.L.L.L.L.L.L.L.L.L.m.                          ",
"                                                              ` L.L.L.L.L.L.L.L.L.L.L.L.L.L.L.L.L.K.b.                          ",
"                                            #.s.x           - ~ L.L.L.L.L.L.L.L.L.L.L.L.L.L.L.L.L.L.:.                          ",
"                                            &.E.l       * & M Q F.L.L.L.L.L.L.L.L.L.L.L.L.L.L.L.L.F.                            ",
"                                          &.Y.W.I.z ; / K v M W 3.L.K.K.L.L.L.L.L.L.L.L.L.L.L.L.A.^                             ",
"                                        a.E.E.E.E.R.t.B.) m D Z J ! U I +.m.K.L.L.L.L.L.L.L.K.m.                                ",
"                                    s z E.U.T.E.E.E.T.h t D G G G H H H F B _ V.L.L.L.L.L.L.c.                                  ",
"                                  5 Y.#.s.a.&.&.p.f.p.#.f.V b C H H F Z D H G R +.n.K.L.L.D.0                                   ",
"                                r { k.T.g.p.*.z z y.f.l. .B M b A H H Z C n c C Z S Y O.4._ n c                                 ",
"                              q S.9.#.#.p.a.o.N.M.0...u.u.E H F C H H H Z c M C Z G H G A Z C c                                 ",
"                              e.L.0.j.U.Y.a.7.L.L.K.e.d.j.] H H H H G C c G H H H H H H G b -                                   ",
"                              J.L.r.i.p.j.X.m.L.L.L.L.K.c.( P M Z 1 % > H H H H H H H H G C                                     ",
"                            [ K.L.b.k l *.%.<.L.L.L.L.L.L.L.L.H.A.Z.K.n.B H H H H H G H H 1                                     ",
"                              K.L.H.y.y.%.$.y.S.L.L.L.L.L.L.L.L.L.L.L.L.@.G H H H A m H m                                       ",
"                              b.L.K.X.E.R.T.W.-.B.L.L.L.L.L.L.L.L.L.L.L.C.C H H C c F G C                                       ",
"                                ` ^ f W.W.E.E.E.z.B.L.L.L.L.L.L.L.L.L.L.F.m H M < c b G G -                                     ",
"                                      P.E.E.E.E.E.h.;.e.J.L.L.L.L.L.L.K.2.C c Z H H H H H c                                     ",
"                                      4 i.W.W.E.W.R.t.e.7.2.2.,.` ) Y , = v H H H H H C >                                       ",
"                                            s d o.1.S.L.L.L.L.L.K.3.T K c M M M N L O.b.|                                       ",
"                                              8 m.L.L.L.L.L.L.L.L.L.F.m.x.3.5.4.v.V.K.L.6.                                      ",
"                                              ^ S.L.L.L.L.L.L.L.L.L.L.L.L.L.L.L.L.L.L.L.w.                                      ",
"                                              ` D.L.L.L.L.L.L.L.L.L.L.L.L.L.L.L.L.L.L.L.8.                                      ",
"                                              r C.L.L.L.L.L.L.L.L.L.L.L.L.L.L.L.L.L.L.L.7.                                      ",
"                                                b.L.L.L.L.L.L.L.L.L.L.L.L.L.L.L.L.L.L.L.|                                       ",
"                                                :.L.L.L.L.L.L.L.L.L.L.L.L.K.V.V.K.L.L.K.^                                       ",
"                                                  D.L.L.L.L.L.L.L.L.L.L.D.2.b.m.1.V.L.S.                                        ",
"                                                  1.K.L.L.L.L.L.L.L.L.H.2.G.L.L.J.3.F.7.                                        ",
"                                                  9 D.L.L.L.L.L.L.L.L.8.A.L.L.L.L.b.b.a                                         ",
"                                                    ^ G.L.L.L.L.L.L.L.>.L.L.L.L.L.V.^                                           ",
"                                                      r A.L.L.L.L.L.K.2.L.L.L.L.L.b.                                            ",
"                                                        ,.,.S.L.L.L.K.7.L.L.L.L.L.w.                                            ",
"                                                        n.K.8.7.7.7.C.7.L.L.L.L.K.^                                             ",
"                                                        7.L.L.L.L.i   ,.L.L.L.L.b.                                              ",
"                                                        u J.L.L.L.:.  ' L.L.L.L.=.                                              ",
"                                                          e.L.L.L.1.    K.L.L.L.^                                               ",
"                                                          9 | A.L.c.    b.L.L.L.w                                               ",
"                                                        7.K.G.S.L.C.    } L.L.L.                                                ",
"                                                        V.L.L.L.L.A.@ r 7 K.L.K.                                                ",
"                                                        } F.L.L.K.1.7.K.C.c.L.L.                                                ",
"                                                            ^ u r : K.L.L.F.L.K.                                                ",
"                                                                    b.L.L.L.L.D.                                                ",
"                                                                      =.m.b.,.i                                                 ",
"                                                                                                                                ",
"                                                                                                                                "
};
