/* XPM */
static char *f04c14f64d7a4f08e5bb9a8c112f9512By2Yew66ZRjZj56M[] = {
/* columns rows colors chars-per-pixel */
"64 64 180 2 ",
"   c None",
".  c black",
"X  c #100F0C",
"o  c #161209",
"O  c #2B2412",
"+  c #3F3216",
"@  c #322A17",
"#  c #4A1214",
"$  c #461112",
"%  c #5D1416",
"&  c #621719",
"*  c #6C181A",
"=  c #79191B",
"-  c #43371B",
";  c #771F27",
":  c #4C3E20",
">  c #482B3E",
",  c #6C2532",
"<  c #7A2632",
"1  c #5C4A24",
"2  c #514120",
"3  c #634F26",
"4  c #655229",
"5  c #6E582B",
"6  c #675329",
"7  c #735C2C",
"8  c #795129",
"9  c #7B622E",
"0  c #7F6530",
"q  c #212C42",
"w  c #3A3D42",
"e  c #3E4041",
"r  c #3A4B6E",
"t  c #374A71",
"y  c #3C527E",
"u  c #5E4242",
"i  c #4C4F50",
"p  c #4F535A",
"a  c #52555A",
"s  c #5B5A57",
"d  c #5A5446",
"f  c #6C415E",
"g  c #635943",
"h  c #6C685D",
"j  c #7A6D51",
"k  c #7F7755",
"l  c #5A4262",
"z  c #4F5662",
"x  c #5A5F61",
"c  c #504F77",
"v  c #495875",
"b  c #56616F",
"n  c #576478",
"m  c #6F6D69",
"M  c #656C6E",
"N  c #757264",
"B  c #646E78",
"V  c #6B7375",
"C  c #8B1A1D",
"Z  c #841B1E",
"A  c #941C1F",
"S  c #83211D",
"D  c #9A1D21",
"F  c #A71E22",
"G  c #AA1E22",
"H  c #972525",
"J  c #9D3125",
"K  c #8B3C25",
"L  c #AC2023",
"P  c #A82926",
"I  c #B42225",
"U  c #BC2226",
"Y  c #BA2B27",
"T  c #BF252B",
"R  c #B32E27",
"E  c #AA3427",
"W  c #B43229",
"Q  c #B63E2C",
"!  c #C32227",
"~  c #C72328",
"^  c #CC2428",
"/  c #D4252A",
"(  c #DB262B",
")  c #9A4A2B",
"_  c #874D29",
"`  c #AF5C32",
"'  c #B65C35",
"]  c #84692F",
"[  c #80652D",
"{  c #856A31",
"}  c #8A6E33",
"|  c #856638",
" . c #8E7135",
".. c #937435",
"X. c #987134",
"o. c #9D7C39",
"O. c #9C7B37",
"+. c #AC6334",
"@. c #A07E39",
"#. c #A87839",
"$. c #B5783A",
"%. c #C34933",
"&. c #843346",
"*. c #835946",
"=. c #826E45",
"-. c #897B59",
";. c #917949",
":. c #AA705C",
">. c #897C62",
",. c #BE7C6A",
"<. c #9C803B",
"1. c #A4823B",
"2. c #AA863D",
"3. c #AD893E",
"4. c #B28C3F",
"5. c #B9803D",
"6. c #C0853F",
"7. c #998346",
"8. c #8F8457",
"9. c #9B865A",
"0. c #92885E",
"q. c #AB8B4C",
"w. c #A78842",
"e. c #B38D41",
"r. c #BF8D41",
"t. c #AD9144",
"y. c #BC9443",
"u. c #B89746",
"i. c #A69351",
"p. c #BD9A53",
"a. c #B79F50",
"s. c #BAA355",
"d. c #85826B",
"f. c #968C63",
"g. c #A99A62",
"h. c #C09744",
"j. c #C39A45",
"k. c #C99D46",
"l. c #CA9A49",
"z. c #CCA047",
"x. c #CEA249",
"c. c #C1A44D",
"v. c #D3A64A",
"b. c #DCAC4D",
"n. c #D8A84D",
"m. c #C6AB57",
"M. c #CCA850",
"N. c #D6A950",
"B. c #CDB35E",
"V. c #D9BB5A",
"C. c #D8B957",
"Z. c #E0AF4E",
"A. c #E2B14F",
"S. c #E5B451",
"D. c #E9B651",
"F. c #EDB952",
"G. c #F2BD54",
"H. c #DBBF62",
"J. c #EAC95F",
"K. c #E6C55E",
"L. c #F6C055",
"P. c #FBC457",
"I. c #FFC758",
"U. c #DEC060",
"Y. c #E2C461",
"T. c #ECCA62",
"R. c #F6D364",
"E. c #FFDA67",
"W. c #F8D565",
"Q. c #3F5584",
"!. c #425A89",
"~. c #495F89",
"^. c #405786",
"/. c #455E91",
"(. c #4B618C",
"). c #50658C",
"_. c #466195",
"`. c #496295",
"'. c #4A659C",
"]. c #4E6BA4",
/* pixels */
"                                            { 1                                                                                 ",
"                                          x.I.I.7                                                                               ",
"                                        k.I.I.I.}         j.v.x.                                                                ",
"                                      1 P.I.I.I.y.P.A.h.{ A.I.I.D.                                                              ",
"                                      2 I.I.I.I.S.I.I.I.P.x.y.I.x.                                                              ",
"                                    5 j.I.I.I.I.I.I.I.I.I.I.D. .                                                                ",
"                                    y.P.P.I.I.I.I.I.I.I.I.I.I.D.                                                                ",
"                                  1 P.I.I.I.I.I.I.I.P.k.n.I.I.I.v.                                                              ",
"                                  3.I.I.I.I.I.I.I.I.j.@.k.I.I.I.I.y.                                                            ",
"                                  j.I.I.I.I.I.I.I.I.P.I.I.I.I.I.I.I.e.                                                          ",
"                                  A.I.I.I.I.I.I.I.I.I.I.I.I.I.I.I.I.L.9                                                         ",
"                                  F.I.I.I.I.I.I.I.I.I.I.I.I.I.I.I.I.I.y.                                                        ",
"                                  F.I.I.I.I.I.I.I.I.I.y.G.I.I.I.I.b.I.j.                7.R.E.R.                                ",
"                                  v.I.I.I.I.I.I.I.I.I...G.I.I.I.F.k.j.1.            w.T.E.J.K.E.C.                              ",
"                                  2.I.I.I.I.I.I.I.I.I.I.I.I.I.I.S...] N.          ..v.c.M.u.C.E.t.t.                            ",
"                                  7 I.I.I.I.I.I.I.I.I.I.I.I.I.I.I.] o [ y.        e.I.F.F.I.v.<.G.j.                            ",
"                                    S.I.I.I.I.I.I.I.P.G.I.I.I.I.I.+ . . b.        5 L.I.I.P.n.G.I.F.                            ",
"                                  * #.I.I.I.I.I.I.I.4.3.I.I.I.I.I.Z...6 P.9            .9 4.b.I.I.I.                            ",
"                                # ^ ) I.I.I.I.I.I.I.b.{ I.I.I.I.I.I.G.1.D.              o.I.I.I.I.I. .                          ",
"                                $ ^ H $.v.L.I.I.I.I.G.O D.I.I.I.I.P.O.I.#.%     Z S _ z.I.I.I.I.I.I. .                          ",
"                                  $ ~ ( / L E ` 5.Z.I.| :.S.I.P.b.4.L.k.H C ( ( ( l.I.I.I.I.I.I.I.I.[                           ",
"                                  C ( ( / ^ ~ ^ ^ P ` #.,.*...y.k.P.b.E ~ A ^ ( ^ v.I.I.I.I.I.I.I.b.                            ",
"                                    L A = F F / / I U ^ W _ X.F.P.6.Y ( ( ( G U / k.I.I.I.I.I.I.k.                              ",
"                                    % ! ( ( / D ! ( ^ I ^ ( ^ Y E I ( ( ( ( ( U F X.I.I.I.I.D.@.                                ",
"                                  * ^ ( ( ( ( ( C I ( ( / ( ( ( ( ( U G ( ( ( ( / Y Q +.y.1.                                    ",
"                                = ( ( ( ( ( ( U ; , < L W ( ( ( ( ^ G ( ( ( ( / P C ^ A                                         ",
"                              D ( ( ( ( ( T l /.].].].0.g.s l.' %./ ( ( ( ( J r.I.$.! &                                         ",
"                            A R Y ^ ( ( ( &.]._.`.y `.f.Y.H.T.d.N T ( ( T +.G.I.I.I.8                                           ",
"                          & ) G.D.r.) ~ ~ H !._.^.x b k T.J.0.].'.f ( P r.I.I.I.I.I.b.                                          ",
"                            y.I.I.I.P.$.L Z /.'._.B.R.8.b C.a.k ).c J b.I.I.I.I.I.I.I.2.                                        ",
"                            b.I.I.I.I.F.K > ].`.t m.T.Y.M W.E.E.B u n.I.I.I.I.I.I.I.I.v.                                        ",
"                            b.I.I.I.I.P.5 !.]._.w.i g.E.E.E.E.Y.v x.I.I.I.I.I.I.I.I.I.P.                                        ",
"                            j.I.I.I.I.I.I.M.>.p.I.h U.m.N V.E.B.~.S.I.I.I.I.I.I.I.I.I.I.9                                       ",
"                            } P.I.I.I.I.I.I.I.I.I.7.s.-.`.n f.i.`.p.I.I.I.I.I.I.I.I.I.I. .                                      ",
"                              j.I.I.I.I.I.I.I.I.I.u.c.G.9.].V s.].-.I.I.I.I.I.I.I.I.I.I.2.                                      ",
"                                S.I.I.I.I.I.I.I.I.j.j.I.p.].(.v ].m I.I.I.I.I.I.I.I.I.I.e.                                      ",
"                                  v.I.I.I.I.I.I.I.I.I.I.9.].].].].m I.I.I.I.I.I.I.I.I.I.2.                                      ",
"                                    O.A.I.I.I.I.I.I.I.N.r Q.Q.!.Q.j I.I.I.I.I.I.I.I.I.I.}                                       ",
"                                      q a =.e.j.j.y.j ~.].].t t Q.q.I.I.I.I.I.I.I.I.I.I.7                                       ",
"                                      e ].].].'.'.].].].].].].`.v D.I.I.I.I.I.I.I.I.I.L.                                        ",
"                                      q._./.'.].].].].].].].].'.;.I.I.I.I.I.I.I.I.I.I.x.                                        ",
"                                      b.n ]._./._.'.].].].`.`.p G.I.I.I.I.I.I.I.I.I.I. .                                        ",
"                                      z.p.(.].].'.'.].].].'.p b.I.I.I.I.I.I.I.I.I.I.v.                                          ",
"                                      } I.w.z _.].].].].'.a v.I.I.I.I.I.I.I.I.I.I.I.7                                           ",
"                                        G.3.I.z.=.d w g e.P.I.I.I.I.I.I.I.I.I.I.I...                                            ",
"                                        1 z.I.I.I.I.x.k.I.I.I.I.I.I.I.I.I.I.I.I.y.O                                             ",
"                                        - F.I.I.I.I.I.4.I.I.I.I.I.I.I.I.I.I.P.4.3.7                                             ",
"                                        7 I.I.I.I.I.I.3.I.I.I.I.I.I.I.I.I.F...x.I.                                              ",
"                                        1.I.I.I.I.I.I.1.I.I.I.I.I.I.I.A...1.L.I.S.                                              ",
"                                        e.I.I.I.I.I.I.9 e.e.4.3.o.1.2.h.G.I.I.I.3.                                              ",
"                                        y.I.I.I.I.I.I.7           D.I.I.I.I.I.I.5                                               ",
"                                        j.I.I.I.I.I.P.          : P.I.I.I.I.I.k.                                                ",
"                                        x.I.I.I.I.I.k.          } I.I.I.I.I.G.4                                                 ",
"                                        v.I.I.I.I.I.3.          y.I.I.I.I.I...                                                  ",
"                                        b.I.I.I.I.I.0           Z.I.I.I.I.x.                                                    ",
"                                        b.I.I.I.I.F.            P.I.I.I.F.4                                                     ",
"                                        A.I.I.I.I.y.          { I.I.I.I.}                                                       ",
"                                        D.I.I.I.P.3           k.I.I.P.7 X                                                       ",
"                                      @ F.I.I.I.v.            D.I.I.A.F.I.F.7                                                   ",
"                                  k.I.G...j.I.I.}             L.I.I.I.I.I.I.b.                                                  ",
"                                @.I.I.I.I.P.I.b.              I.I.I.I.I.I.I.v.                                                  ",
"                                j.I.I.I.I.I.P.3               P.I.I.I.I.I.D.5                                                   ",
"                                3 F.I.I.I.P.}                 { 2.2.2.2...                                                      ",
"                                    4 7 7 -                                                                                     "
};
