/* XPM */
static char * playerr_xpm[] = {
"64 64 177 2",
"  	c #C0D470",
". 	c #A4C263",
"+ 	c #EAE178",
"@ 	c #050304",
"# 	c #040203",
"$ 	c #000000",
"% 	c #070705",
"& 	c #EDBF5F",
"* 	c #EFC161",
"= 	c #020401",
"- 	c #E7C959",
"; 	c #F2C76B",
"> 	c #42321B",
", 	c #F0C461",
"' 	c #F0C664",
") 	c #030102",
"! 	c #EEC15C",
"~ 	c #EEC25F",
"{ 	c #DBB44D",
"] 	c #0B090A",
"^ 	c #EFC563",
"/ 	c #EEC762",
"( 	c #151314",
"_ 	c #060503",
": 	c #030202",
"< 	c #0B0704",
"[ 	c #060604",
"} 	c #040603",
"| 	c #DDAF56",
"1 	c #35301A",
"2 	c #040301",
"3 	c #040402",
"4 	c #F1C36B",
"5 	c #F1C469",
"6 	c #08000B",
"7 	c #000002",
"8 	c #020200",
"9 	c #070003",
"0 	c #BAA68B",
"a 	c #080404",
"b 	c #C33D3C",
"c 	c #F2C862",
"d 	c #060606",
"e 	c #370B0B",
"f 	c #907F6A",
"g 	c #B8A489",
"h 	c #AB987F",
"i 	c #050003",
"j 	c #C13D3B",
"k 	c #070105",
"l 	c #EFC45B",
"m 	c #B4A087",
"n 	c #070506",
"o 	c #070803",
"p 	c #E6C55E",
"q 	c #BEA68A",
"r 	c #050004",
"s 	c #030303",
"t 	c #B9A88C",
"u 	c #060405",
"v 	c #030504",
"w 	c #C5393C",
"x 	c #050704",
"y 	c #887461",
"z 	c #BDA687",
"A 	c #B0997E",
"B 	c #C23D40",
"C 	c #B13736",
"D 	c #C53D3F",
"E 	c #030708",
"F 	c #CB3E44",
"G 	c #C63E3E",
"H 	c #070602",
"I 	c #050702",
"J 	c #020403",
"K 	c #0A0000",
"L 	c #040001",
"M 	c #A88B49",
"N 	c #D1AA53",
"O 	c #D3AC55",
"P 	c #060407",
"Q 	c #221D16",
"R 	c #BA3A39",
"S 	c #C23C3B",
"T 	c #A23130",
"U 	c #C49F4D",
"V 	c #050102",
"W 	c #272119",
"X 	c #280606",
"Y 	c #8C2A29",
"Z 	c #DAB257",
"` 	c #000103",
" .	c #B8A48B",
"..	c #A78841",
"+.	c #030300",
"@.	c #270506",
"#.	c #010102",
"$.	c #200505",
"%.	c #AB3534",
"&.	c #020202",
"*.	c #BAA68D",
"=.	c #010204",
"-.	c #EEC260",
";.	c #DDB459",
">.	c #B53936",
",.	c #010400",
"'.	c #090909",
").	c #040404",
"!.	c #050507",
"~.	c #040000",
"{.	c #B08F45",
"].	c #A83330",
"^.	c #040300",
"/.	c #A9967E",
"(.	c #C13C3B",
"_.	c #B33736",
":.	c #872726",
"<.	c #090708",
"[.	c #16130E",
"}.	c #8B7B67",
"|.	c #F1C660",
"1.	c #74221D",
"2.	c #060000",
"3.	c #BB974A",
"4.	c #060205",
"5.	c #847461",
"6.	c #B29E86",
"7.	c #8B7F6C",
"8.	c #070304",
"9.	c #120308",
"0.	c #D2E077",
"a.	c #010300",
"b.	c #B03A35",
"c.	c #B83737",
"d.	c #9C2F2E",
"e.	c #B23736",
"f.	c #AF3635",
"g.	c #802426",
"h.	c #DCB456",
"i.	c #010101",
"j.	c #130D03",
"k.	c #CAA450",
"l.	c #070209",
"m.	c #060203",
"n.	c #060201",
"o.	c #030301",
"p.	c #040507",
"q.	c #F0C662",
"r.	c #050505",
"s.	c #010302",
"t.	c #EEC35B",
"u.	c #05040C",
"v.	c #03060B",
"w.	c #F2C464",
"x.	c #CBA551",
"y.	c #050306",
"z.	c #E5BB5C",
"A.	c #655124",
"B.	c #F2C260",
"C.	c #ECC560",
"D.	c #C09C4C",
"E.	c #F6C664",
"F.	c #212121",
"G.	c #E3B95B",
"H.	c #ECC75D",
"I.	c #0A030A",
"J.	c #040500",
"K.	c #EFC360",
"L.	c #D3AC54",
"M.	c #D6AE56",
"N.	c #050209",
"O.	c #000200",
"P.	c #B99749",
"Q.	c #CEA852",
"R.	c #0B090C",
"S.	c #050503",
"T.	c #020102",
"                                                                                                                                ",
"                                                                                                                                ",
"                                                                                                                                ",
"                                                                                                                                ",
"                        . . . . . . . . . .                                                                                     ",
"                        . . . . . . . . . .                                                                                     ",
"                . . . . . . . . . . . . . . . .                                 + + + +                                         ",
"                . . . . . . . . . . . . . . . .                                 + + + +                                         ",
"            . . . . . . . . . . . . . . . . . .                             + + + + + + + +                                     ",
"            . . . . . . . . . . . . . . . . . .                             + + + + + + + +                                     ",
"            . . . . . . . . . . . . . . . . . .                                 + + + +                 + + + +                 ",
"            . . . . . . . . . . . . . . . . . .               @ @ # $         % $ + + +                 + + + +                 ",
"                . . . . . . . . . . . . . .                   @ @ & * $     = - ; > $ $ $   $ $ $ $ + + + + + + + +             ",
"                . . . . . . . . . . . . . .                 $ , , , , ' $ ) , ! ~ , , , { ] $ ^ / $ + + + + + + + +             ",
"                                                            ( , , , , , , , , , , , , , , , , _ , : < $ $ + + +                 ",
"                                                            [ , , , , , , $ , , , , , , , , , , } , , | $ + + +                 ",
"                                        . . . . . .         1 , , , , , , , , , , , , , , , , , 2 , , , $                       ",
"                                        . . . . . .         3 , , , , , , , , , , , , , , , , , 4 , , , $                       ",
"        . . . . . . . .             . . . . . . . . . .     $ , , , , , , , , , , , , , , , , , , , , , $                       ",
"        . . . . . . . .             . . . . . . . . . .     $ 5 , , , , , , , , , , , , , , , , , , , #                         ",
"    . . . . . . . . . . . .         . . . . . . . . . .     $ , , , , , , , , , , , , , , , , , , , 6 $                         ",
"    . . . . . . . . . . . .         . . . . . . . . . .       7 , , , , , , , , , , , , , , , , , , $                           ",
"    . . . . . . . . . . . .             . . $ $ 8 .         7 9 , , , , , , , , , , , , , , , , , , $                           ",
"    . . . . . . . . . . . .             . $ $ 0 @ .   $ a # b $ , , , , , , , , , , , , , , , , , c $                           ",
"        . . . . . . . .                 d $ 0 0 $ $ @ $ e b b $ , , , , , , , , , , , , , , , , , $                             ",
"        . . . . . . . .               $ f 0 0 0 g h $ , i b b j $ $ $ k $ $ , , , , , , , , , l $                               ",
"                                    $ f m 0 0 0 0 0 0 $ n b b b b b b b b b o $ , , , , , , p $                                 ",
"                                  $ q r 0 0 0 s 0 0 t u $ b b v b b w b b b b b $ $ , , , , $                                   ",
"                                # x y q q z A $ $ q q q $ b B $ C b b b D E F b b G H $ $ I J K                                 ",
"                              L , M $ $ $ $ $ N O n P q Q b b b $ b b b R $ b b S b b b b b T $                                 ",
"                            $ , , $ 0 0 h $ U , , , , V W X C b b b R $ $ Y b b b b b b b $ $                                   ",
"                            u , Z $ 0 `  .$ .., , , , , , , +.$ @.#.$.$ %.b b b b b b b b $                                     ",
"                            &., , $ *.=.0 h $ , , , , , , , , -.;.-.$ $ >.b b b b b ,.b b u                                     ",
"                            '., Z $ 0 ).!.~.$ {., , , , , , , , , , , , $ R b b b ].$ b ^.                                      ",
"                            $ ;.-.$ 0 0 0 0 /.$ , , , , , , , , , , , , $ R b (._.:.$ b b $                                     ",
"                              $ &.<.[.0 0 0 0 }.$ |., , , , , , , , , , $ b R 1.$ $ R b b $                                     ",
"                                    $ 0 0 0 0 0 0 $ 2.3., , , , , , , , $ Y 4.$ $ b C b b $                                     ",
"                                      $ 0 0 0 0 5.6.7.$ $ $ 8.$ $ s $ $ $ $ b b b b $ $ 9.                                      ",
"                        0.0.0.0.0.0.0.0.$ $ # <.$ $ $ , , , , , , , a.b.c.d.e.f.g.$ h.-.i.                                      ",
"                        0.0.0.0.0.0.0.0.0.0.  $ , , , , , , , , , , ;.$ $ $ $ j.$ k., , l.                                      ",
"                    0.0.0.0.0.0.0.0.0.0.0.0.0.$ , , , , , , , , , , , , , , -.;., , , , m.                                      ",
"                    0.0.0.0.0.0.0.0.0.0.0.0.0.$ , , , , , , , , , , , , , , , , , , , , n.                                      ",
"                    0.0.0.0.0.0.0.0.0.0.0.0.0.$ , , , , , , , , , , , , , , , , , , , , o.+                                     ",
"                    0.0.0.0.0.0.0.0.0.0.0.0.0.$ , , , , , , , , , , , , , , , , , , , , p.+                                     ",
"                    0.0.0.0.0.0.0.0.0.0.0.0.0.$ q., , , , , , , , , , , , , , , , , , , $ + + +                                 ",
"                    0.0.0.0.0.0.0.0.0.0.0.0.0.0.$ , , , , , , , , , , , , r.$ $ s., , , $ + + +                                 ",
"                        0.0.0.0.0.0.0.0.0.0.0.0.$ t., , , , , , , , , , $ , , , , u., 2 + +                                     ",
"                        0.0.0.0.0.0.0.0.0.0.0.0.$ $ , , , , , , , , , v.Z , , , , w.$ + + +                                     ",
"                                                    s , , , , , , , , , , , , , , , u                                           ",
"                                                      : $ , , , , , , , , , , , , c $                                           ",
"            0.0.0.0.0.0.0.0.                          $ x.$ $ Z , , , , , , , , , y.                                            ",
"            0.0.0.0.0.0.0.0.                          $ , z.A.$ y.B.C., , , , , D.$                                             ",
"        0.0.0.0.0.0.0.0.0.0.0.0.                      $ E., , , ;.F.$ , , , , , G.$             + + + +                         ",
"        0.0.0.0.0.0.0.0.0.0.0.0.                        $ , , , -.&.  H., , , , I.              + + + +                         ",
"        0.0.0.0.0.0.0.0.0.0.0.0.                        $ , , , , $   @ , , , , J.          + + + + + + + +                     ",
"        0.0.0.0.0.0.0.0.0.0.0.0.                        o , K., , ..$ $ , , , x.$           + + + + + + + +                     ",
"            0.0.0.0.0.0.0.0.                          $ , , , , , L.$ $ , , , M.$               + + + +                         ",
"            0.0.0.0.0.0.0.0.                          $ , , , , , , y.$ N., , -.$               + + + +                         ",
"                                                        @ ;., Z , O., , , , , P.$                                               ",
"                                                          $ $ $ $ <., , , , , k.$                                               ",
"                                                                  $ , , , , , Q.$                                               ",
"                                                                    $ ) R.S.T.$ $                                               ",
"                                                                                                                                ",
"                                                                                                                                "};
