/* XPM */
static char *f2962012183f4531a5f9ae9b6bec369dZAy6bW8jv77iBbla[] = {
/* columns rows colors chars-per-pixel */
"64 64 138 2 ",
"   c None",
".  c #010101",
"X  c #040708",
"o  c #06090B",
"O  c #080A0E",
"+  c #170908",
"@  c #090E11",
"#  c #0C1217",
"$  c #0E161B",
"%  c #101A1F",
"&  c #3E1A16",
"*  c #151D24",
"=  c #19222C",
"-  c #1B2A33",
";  c #1C2631",
":  c #461D19",
">  c #612822",
",  c #283D4B",
"<  c #253B48",
"1  c #29414F",
"2  c #2E4455",
"3  c #2E4A59",
"4  c #314D5D",
"5  c #325061",
"6  c #3A5A6C",
"7  c #3B5E72",
"8  c #3D6175",
"9  c #42697F",
"0  c #933D34",
"q  c #9C3C34",
"w  c #A33B34",
"e  c #AB3934",
"r  c #BC3734",
"t  c #B23934",
"y  c #C33634",
"u  c #C93534",
"i  c #964235",
"p  c #994536",
"a  c #9D4B36",
"s  c #A14335",
"d  c #A14C35",
"f  c #A15236",
"g  c #A65937",
"h  c #A95C37",
"j  c #A25338",
"k  c #AA5739",
"l  c #A75C3A",
"z  c #A95D3A",
"x  c #AD6137",
"c  c #AD6439",
"v  c #B06738",
"b  c #B26B3A",
"n  c #B7723A",
"m  c #B8743C",
"M  c #BE7C3B",
"N  c #8F4D4A",
"B  c #8C5A5C",
"V  c #A45D52",
"C  c #98794E",
"Z  c #866C59",
"A  c #84745F",
"S  c #AE6947",
"D  c #AA6344",
"F  c #B06D49",
"G  c #BF7C40",
"H  c #B77A4F",
"J  c #BB7F50",
"K  c #957E6B",
"L  c #C07E40",
"P  c #C2823B",
"I  c #C78A3B",
"U  c #C98E3C",
"Y  c #CA833B",
"T  c #CD923C",
"R  c #D39C3D",
"E  c #D6A13E",
"W  c #DAA63E",
"Q  c #DDAA3F",
"!  c #E2B23F",
"~  c #B59149",
"^  c #BF8553",
"/  c #C48441",
"(  c #C78A42",
")  c #CA8D43",
"_  c #CD9244",
"`  c #D59C46",
"'  c #C18955",
"]  c #CA975B",
"[  c #DBA547",
"{  c #DBA648",
"}  c #DEAA48",
"|  c #D0A15F",
" . c #E0AD49",
".. c #E4B640",
"X. c #E7B940",
"o. c #E8BB40",
"O. c #E5B54A",
"+. c #EBBD4C",
"@. c #D3A561",
"#. c #D6AC63",
"$. c #EFC34D",
"%. c #E6C66F",
"&. c #E8CA71",
"*. c #F1D776",
"=. c #F7E27B",
"-. c #496C86",
";. c #49738C",
":. c #4B7791",
">. c #4E7C96",
",. c #517F9A",
"<. c #5C7BAA",
"1. c #52829D",
"2. c #5F95B5",
"3. c #6085AA",
"4. c #7D95AF",
"5. c #629CBD",
"6. c #7497BA",
"7. c #649FC0",
"8. c #6B9DC4",
"9. c #719FC7",
"0. c #64A0C1",
"q. c #68A4C7",
"w. c #6CA3C9",
"e. c #6BAACE",
"r. c #70A1CB",
"t. c #76AECD",
"y. c #6EAFD4",
"u. c #71ABD4",
"i. c #72AFD8",
"p. c #73B1D6",
"a. c #73B6DC",
"s. c #74B8DF",
"d. c #848796",
"f. c #A99380",
"g. c #C28981",
"h. c #D6B6A8",
"j. c #D8B4A8",
"k. c #E2BBB4",
/* pixels */
"                                                                            0 0 0 0                                             ",
"                                                                          b $.$.$.$.$.0                                         ",
"                                                                        0 $.$.$.$.$.$.$.0                                       ",
"                                                0 } $.O.0               ) $.$.+.$.$.$.$.$.0                                     ",
"                                              0 $.$.$.$.$.+.0       0 0 ` $.$.` $.$.$.$.$.$.                                    ",
"                                            0 { $.$.$.$.$.$.` 0 0 x O.+.( $.$.$.l $.$.$.$.$.0                                   ",
"                                            p $.$.$.$.$.$.$.z $.$.$.$.$.b $.$._ 0 0 $.$.$.$.0                                   ",
"                                            ) $.$.$.$.} 0 $.$.$.$.$.$.$.$./ $.$.$.+.0 $.$.$.0                                   ",
"                                            / $.$.L 0 p $.$.$.$.$.$.$.$.$.$.$.$.$.$.$.$.$.$.0                                   ",
"                                            0 O.$. .` $.$.$.$.$.$.$.$.$.$.$.$.$.$.$.$.$.$.+.                                    ",
"                                                0 a O.$.$.$.$.$.$.$.$.$.$.$.$.$.$. .p l 0 )                                     ",
"                                                  m $.$.$.$.$.$.$.$.$.$.$.$.$.$.$.$.$.$.$.$.0                                   ",
"                                                0 $.$.$.$.$.$.$.$.$.$.$.$.$.$.$.$.$.$.$.$.$.0                                   ",
"                                              0 $.$.$.$.$.$.$.$.$.$.$.$.$.$.$.$.$.$.$.$.$.$./                                   ",
"                                            0 [ $.$.$.$.$.$.$.$.$.$.$.$.$.$.$.$.$.$.$.$.$.$.$.                                  ",
"                                            +.$.$.$.$.$.$.$.0 0 0 $.$.$.$.$.$.$.$.$.$.$.$.$.$.                                  ",
"                                          f 0 $.$.$.$.$.$.$.$.$.$.x $.$.$.$.$.$.$.$.$.$.$.$.$.0                                 ",
"                                          c +.$.$.$.$.$.$.$.$.$.$.p $.$.$.$.$.$.$.$.$.$.$.$.$.0                                 ",
"                                        0 $.$.$.$.$.$.$.$.$.$.$.$.$.$.$.$.$.$.$.$.$.$.$.$.$.$.0                                 ",
"                                          O.$.$.$.$.$.$.$.$.$.$.$.$.$.$.$.$.$.$.$.$.$.$.$.$.$.0                                 ",
"                                          f $.$.$.$.$.$.$.$.$.$.$.$.$.$.$.$.$.$.$.$.$.$.$.$.$.                                  ",
"                                          0 $.$.$.$.$.$.$.$.$.$.$.$.$.$.$.$.$.$.$.$.$.$.$.$.$.                                  ",
"                                            ) $.$.[ $.$.$.$.O.$.$.$.$.$.$.$.$.$.$.$.$.$.$.$._                                   ",
"                                            g $.b M $.$.$.$.0 l $.$.$.$.$.$.$.$.$.$.$.$.$.$.i                                   ",
"                                            i $.0 +.$.O.$.$.0 0 / $.$.$.$.$.$.$.$.$.$.$.$.$.                                    ",
"                                          0 $.n $.$.$.$.$.$.$.$.$.$.$.$.$.$.$.$.$.$.$.$.$.x                                     ",
"                                          G } / 0 0 $.$.$.$.$.$.$.$.$.$.$.$.$.$.$.$.$.$.O.0                                     ",
"                                          +.m a 0 0 ` $.$.$.$.$.$.$.$.$.$.$.$.$.$.$.$.$.$.u y                                   ",
"                                          f $. .0 a $.$.$.$.$.$.$.$.$.$.$.$.$.$.$.$.$.$.$.u u                                   ",
"                                          0 $.b $.$.$.$.$.) $.$.$.$.$.$.$.$.$.$.$.$.$.$.i u u                                   ",
"                                            0 v p $.$.$.l 0 $.$.$.$.$.$.$.$.$.$.` k u u u u r                                   ",
"                                        0 E o.o.M &.' J 0 Z V $.$.$.$.$.+.s r u u u u u u u 0                                   ",
"                                      0 n o.o...=.=.=.=.K f.h.m _ $.} i u r t w e y u u u u 0                                   ",
"                                      X.o.o.o.x =.=.=.=.g.h.0 $.$.w u r u u u u u u u u y u 0                                   ",
"                                    a o.o.o.o.o.=.^ *.=.k.j.$.G u u r u u u w w e e e y u u 0                                   ",
"                                    ! o.o.o.o.o.=.| =.0 e ` } u r r u u u w u u u u u e u u 0                                   ",
"                                    o.o.o.o.o.o.=.M S ] u w u u u u u u u u u u u u u u u u 0                                   ",
"                                    o.o.o.o.o.o.o.m q =.q w w u u u y u r u u u u u u u u u 0                                   ",
"                                    o.o.o.o.o.o.P u e =.u u u u u u u 0 t u u u u u u u u u 0                                   ",
"                                    Q o.o.o.v R u u y =.r e r u u e o.o.o.I u u u u u u u e y                                   ",
"                                      M o.b p 0 u u u y u u u d ..o.o.o.o.o.o.u u u u u t u u 0                                 ",
"                                        0 7.$ . + u u u u e W o.o.o.o.o.o.o.o.x u u u u u u u 0                                 ",
"                                        : s.s.s.s.s.6 t o.o.o.o.o.o.o.o.o.o.o.o.u u u u u u w                                   ",
"                                    A s.. s.. . @ s.,.o.o.o.o.o.o.o.o.o.o.o.o.o.t u u u y b o.0                                 ",
"                                    t.s.2.s.O <.<.. > o.o.o.o.o.o.o.o.o.o.o.o.o.e 0 t s o.o.o.0                                 ",
"                                A X 1.s.s.9 s.o <.<.p o.o.o.o.o.o.o.o.o.o.o.o.r u ! o.o.o.o.o.x 0                               ",
"                                2.s., s.s.7.s.s.3 %.D o.o.o.o.o.o.o.o.o.o.o.v Y W o.o.o.o.o.o.o.0                               ",
"                            p h s.s.a.* s.s.. s.s.=.=.j o.o.o.o.o.o.o.o.o.f o.o.o.o.o.o.o.o.o.o.0                               ",
"                        0 o.o.d.p.s.s.-.X s.s.6 s.H =.=.=.=.@.o.g B h x X.o.o.o.o.o.! E o.o.o.o.n                               ",
"                        c n T s.o s.s.s.8.3 s.s.p.# * & =.=.=.=.=.4.o.o.o.o.v c U c U o.E Q o.o.R                               ",
"                        I o.o.s.X q.s.s.s.# s.s.s.e.. 1.=.=.=.=.=.l o.o.o.p o.o.o.o.X.c o.o.o.o.R                               ",
"                        v o.o.s.s.. s.s.s.s.; 5 s.s.s.q.@.=.=.=.Q o.o.o.m o.o.o.o.o.o.o.W W o.o.R                               ",
"                        a o.M o s.s.. s.s.s.s.i.X s.s.s.p.#.F =.o.Q X.g o.o.o.o.o.o.o.o.o.o.o.o.m                               ",
"                        0 o.c a.s.s.;.- s.s.s.s.u.. 5.s.s.N i =.R o.f ..o.o.o.o.o.o.o.o.o.o.M o.i                               ",
"                          o.R s.@ s.s.>.. i.s.s.s.s.r.2 ; o.o.=.S o.o.0 o.o.o.o.o.o.o.o.o.o.M o.0                               ",
"                          0 o.5.s.4 s.s.s.. 3.s.s.s.s.s.6.o.o.=.=.o.o.v o.o.o.o.o.o.o.o.o.o.M a                                 ",
"                            a . s.s.$ s.s.s.. * s.s.s.s.9.o.o.=.=.o.o.b o.o.o.o.o.o.o.o.o.o.a 0                                 ",
"                              2 ; s.s.# e.s.s.s.. = 8.s.w...o.! ! o.o.f o.o.o.o.o.o.o.o.o.o.0                                   ",
"                              o s.7.s.s.s.- s.s.s.s.y.1 < b C o.o.o.o.X.o.o.o.o.o.o.o.o.o.0                                     ",
"                              # % s., s.s.s.$ s.s.s.s.s.s.! ~ o.o.o.o.o.o.o.o.R o.! o.o.0                                       ",
"                                s.3 s.-.,.s.s.s.@ 9 s.s.s.W o.o.U o.o.o.o.o.I a 0 0 0                                           ",
"                                . s.8 s.s.; s.s.s.s.s.0.0 a o.o.h o.o.o.o.0                                                     ",
"                                  . s.7 ;.s.:.% s.s.s..     o.o.P o.o.o.c                                                       ",
"                                      . o o @ 7 .             P o.T 0 0                                                         "
};
