/* XPM */
static char *a68e3348eaaa4395f08a1ac0588e8e01z7Tvl2DWPIhHyTo3[] = {
/* columns rows colors chars-per-pixel */
"64 64 256 2 ",
"   c #0D1C0A",
".  c #0D170A",
"X  c #14240D",
"o  c #152C0D",
"O  c #192D0E",
"+  c #16350C",
"@  c #1B3B0E",
"#  c #1A340D",
"$  c #162B11",
"%  c #1B2C13",
"&  c #192714",
"*  c #1C3413",
"=  c #1D3B13",
"-  c #1C3518",
";  c #0F240A",
":  c #223C15",
">  c #23361A",
",  c #233B1A",
"<  c #243818",
"1  c #263516",
"2  c #2C3B23",
"3  c #1D450E",
"4  c #1E4412",
"5  c #234A0F",
"6  c #224314",
"7  c #244A14",
"8  c #2A4D15",
"9  c #25431A",
"0  c #2A441C",
"q  c #264B1A",
"w  c #2B4C1B",
"e  c #2A4415",
"r  c #344D1C",
"t  c #2A5415",
"y  c #2C5B15",
"u  c #2C531B",
"i  c #2E5B1A",
"p  c #265315",
"a  c #32551D",
"s  c #325B1C",
"d  c #365919",
"f  c #2A5B0F",
"g  c #2E6317",
"h  c #336C15",
"j  c #34631C",
"k  c #3A641D",
"l  c #356B1B",
"z  c #3A6C1C",
"x  c #336515",
"c  c #3B731C",
"v  c #3C7B1C",
"b  c #3A7616",
"n  c #2D6C0E",
"m  c #2C4522",
"M  c #2D4C23",
"N  c #2F4228",
"B  c #324C23",
"V  c #364A29",
"C  c #2E5321",
"Z  c #345523",
"A  c #345B22",
"S  c #3A5C24",
"D  c #3A572A",
"F  c #3D5633",
"G  c #3B6423",
"H  c #3C6C23",
"J  c #396327",
"K  c #3D7322",
"L  c #3E7725",
"P  c #47671D",
"I  c #427D1C",
"U  c #44761B",
"Y  c #53701D",
"T  c #455928",
"R  c #475A35",
"E  c #426C24",
"W  c #43642B",
"Q  c #436C2B",
"!  c #486826",
"~  c #55692B",
"^  c #427423",
"/  c #447C23",
"(  c #4A7C24",
")  c #44742A",
"_  c #4B7B2B",
"`  c #497729",
"'  c #557728",
"]  c #486736",
"[  c #546A37",
"{  c #4C7832",
"}  c #567937",
"|  c #65792A",
" . c #667A37",
".. c #6D772B",
"X. c #50601C",
"o. c #597A44",
"O. c #536A43",
"+. c #657A49",
"@. c #687C54",
"#. c #4D5E4C",
"$. c #3E8419",
"%. c #44841C",
"&. c #488A1A",
"*. c #4C931D",
"=. c #4A9918",
"-. c #53991D",
";. c #55881C",
":. c #67841E",
">. c #56A41C",
",. c #58B21C",
"<. c #458322",
"1. c #4B8424",
"2. c #4C8B24",
"3. c #4C832B",
"4. c #4C892A",
"5. c #53842C",
"6. c #558929",
"7. c #4D9424",
"8. c #529324",
"9. c #54942A",
"0. c #5A932B",
"q. c #5B9C2C",
"w. c #579A25",
"e. c #5A8C33",
"r. c #578737",
"t. c #5D9735",
"y. c #4E8531",
"u. c #678828",
"i. c #778927",
"p. c #679928",
"a. c #799628",
"s. c #678836",
"d. c #758939",
"f. c #649B3A",
"g. c #669736",
"h. c #789838",
"j. c #5BA428",
"k. c #5DA92B",
"l. c #64A929",
"z. c #76A729",
"x. c #69B52A",
"c. c #6BA33D",
"v. c #68A737",
"b. c #75A638",
"n. c #6CB334",
"m. c #76B839",
"M. c #74B92F",
"N. c #6CAA1A",
"B. c #7BC437",
"V. c #75C526",
"C. c #5D8744",
"Z. c #688847",
"A. c #75874A",
"S. c #699745",
"D. c #769748",
"F. c #6D9653",
"G. c #779957",
"H. c #728A54",
"J. c #76A947",
"K. c #7BB645",
"L. c #79A656",
"P. c #76AC4D",
"I. c #788D66",
"U. c #7EC549",
"Y. c #AFB61D",
"T. c #879926",
"R. c #939D27",
"E. c #869636",
"W. c #879030",
"Q. c #97A628",
"!. c #8AAA38",
"~. c #99A838",
"^. c #8DB130",
"/. c #A5AC26",
"(. c #A8B829",
"). c #B5BB2B",
"_. c #A8B63A",
"`. c #B5BC3A",
"'. c #A3AB37",
"]. c #90A01F",
"[. c #B9C51D",
"{. c #89C938",
"}. c #BBC527",
"|. c #BAC539",
" X c #A8C339",
".X c #CECD1C",
"XX c #C7CA27",
"oX c #D7D629",
"OX c #C5C938",
"+X c #C8D237",
"@X c #D5D739",
"#X c #D0D229",
"$X c #E4DD28",
"%X c #DBE137",
"&X c #E9E428",
"*X c #E9E634",
"=X c #F2ED33",
"-X c #E2D81B",
";X c #87984A",
":X c #849954",
">X c #89934A",
",X c #87A947",
"<X c #97A948",
"1X c #86B649",
"2X c #85A858",
"3X c #99A955",
"4X c #87B856",
"5X c #99B955",
"6X c #9BBB49",
"7X c #A6B548",
"8X c #B3B947",
"9X c #A5AB57",
"0X c #A8B856",
"qX c #B4BC57",
"wX c #A3AD49",
"eX c #8A966F",
"rX c #84A963",
"tX c #94B070",
"yX c #AAB868",
"uX c #B1BA70",
"iX c #88C649",
"pX c #8AC557",
"aX c #95D04E",
"sX c #BBC64A",
"dX c #B8C75A",
"fX c #ABC74C",
"gX c #96C566",
"hX c #9DC972",
"jX c #B3CA6F",
"kX c #C6CA46",
"lX c #CBD447",
"zX c #D8DA48",
"xX c #C7D355",
"cX c #D7DB57",
"vX c #C8CE57",
"bX c #DEE255",
"nX c #DFE149",
"mX c #E8E848",
"MX c #E7E757",
"NX c #F3F150",
"BX c #C4CC67",
"VX c #C8D569",
"CX c #D7DC67",
"ZX c #D4DB75",
"AX c #C8D172",
"SX c #DCE26E",
"DX c #E8EA67",
"FX c #F1F26F",
"GX c #E0DD46",
"HX c #C2BD1E",
"JX c #A9B786",
"KX c #9FBE86",
"LX c #B1CF8F",
"PX c #CED588",
"IX c #EDF08E",
"UX c #DCE3A0",
/* pixels */
"C.Z.KXhXJ.VXcX<Xb.e.5.c.ZXDX5Xg.2.v.F.p.hXS.+XFXUXb.J.L.t.tX} 0.dXMXIX2XL.r.C.rXJ.4XKXC.F.eXeXtX4X1XiXJ.o.jXSXUXLXr.P.f.4XS.{ tX",
"S W S.1Xr.tXgXh.}.).' :XMXzXsX7X6.1.S.S.S./ z.OXUXf.c.q.v.G.[ ( !.8XAXf.o.P.P.F.S.tXF.] } o.] e.S.P.n.K.e.tXlXZX4Xv.B.J.O.Q o.1X",
"P.{ n.n.2.l.-.(..X).}  .lXlXXXmXsX!.,Xh.S.<.*.z c.) 9.2.3.:XQ q.6.W ' z A ) e.y.Q O.G.I.] r.D.xXdXJ.t.Q o.e.0.g.q.l.iX+.B r.v.gX",
"K.J.) t.iXiX` P u.!.} ZX=X<XT.sXh.lX*XsX1X6.>.<.c.c.h.xXwX1X` r.f.E B P.[ J K 4.K.tXtX#.O.b.dX@X X( s J G g.v b 9.K.K.` 6.t.m.tX",
"&.t.} } aXaXx.^ c w.5XBX8X!.;.' a d.(.fXE I -.%.8.5.<XoX}.v.l.` f.r.r.f.5.H A t.v.K.o.D q.l.1X0.6.A G W <X<Xu H s. X_.3XJ.c._ a ",
"c S.AXbXdXm.x.=.k ^ e.g.! p.0.x G 3.-.( z / c v &.] ! u.( H 2.G / u k w.v.Z 9 q.K.J.] / m.j.{ H &.3.v.b.bXCX@./ 0.zXNXDXdXK.r.r.",
"8 G wXbXuXg.n.l.1.w 0 3XsXxXg.&.-.-.h z h x t -.8.G t t 6.G / G k r.G I 3.t A / e.W ) <.t.J.S K I t.W s.dXwXQ l.v. XlXsXVXn.m.1X",
"a 0 E z.H.^ U q.x.g.D  .cX@Xh.%.l.*.a ] k s t Q.).:XxX0Xg.w y z u L.W s G u j K { 0 ` f.0.f.9 Q 6.H a : W ` 0.M.w.U s.Q h.m.6.S ",
"^.b.w.t.a 8 5 6.>.6.D.Z u.| D.S.k k [ IXtXD 7 _.oXcXmXDXG.: T a Q n.j.w q 4.7 s p = W @X*X~.G %.-.y.u m = q.v.iX6.G t.g.W 3.l & ",
"[.^.iXgXG.0 * b j.v.7 W 2.z U T : W 9XDXIX+.r.s.wXT.kXsX,XP OX+X6XL 8.i J v.pXf.m ,  .oX@X5Xy.9.l.l.2XhX, l.g.Q u A $.G u j l Z ",
";.%.5.n.1X! T z ^ k X w r.J L r.W H U qXuXS.[ cXqX1.%.( e.[ mX=XCXqXfXJ.c.3.0._ pX4X<.i.R.fXD.6.K.K.JXc.t.m.{ 7 k 4.w.m.hXD z rX",
"6 j ( K. XoXmX' y R.OX} E R e.z @ v y p 4XZ.jXmXzXg.;.5.pXpXVXcXSXNXkXg.M M 6 q.0.{ F.wXMXMXMX} F.tXIXIXyXc.v.E y 3.m.K.{ p e : ",
"6 w H 1.,XmXmX3XG 0X*XCX,X} D.f.G.r.t 7 J.] % u.| P 8XxXxXK.P [ ~.`. Xr.# 6 u a A H W P W.R.<X[ ` A.kXlX6XK.gXS.D m / 3.H p.`.W.",
"e.Z.a S b.6XyX+.h b.8X~.4X2X] 5XIXuX{ 3.2.Q y / 8 ! zX=X@X5.s * : ' w.D W a S R m w A u m G a B w 0 s. ...3X5XiXQ t j | Q.|.$X@X",
"v.4Xr.0 <.,XqXuXP.v.+.` g.rXm.ZXDXIXgXc.2X>X;Xx 8 0 R.+XQ.~ t = : ^ f.rXs.S W L.r.J D 0 , U 6 0 6 r z T mXNXVXb.w.y 8 Q.&X@X@XqX",
"fXxXJXJXJXBXNXMX6Xc _ g.hXf.J.yXZXPXZ.D.dXmXwX= 0 w ` s.w 8 0 % 9 G 3.k H ) W } B.S.m - u t 7 Z A j H ! @XMXPXKXv.w i i.).|.D.S.",
"vXzXUXFXNXBXkX8X! w ) m.e.4XyXlX<Xp.j D } i.m a = q.r.S.G.[ T yX;X] 8 y.w : { iXq.w : @ j D } o.` H f.Z ~ qXJ.Q a / m.( r ! 2 > ",
"' u.tXxXkX~ T [ w G tXs.l.J.IXNXsXj s u 9 O.A h C G c { g.c.~ mXmX;Xi 7 6 6 a e.G % : A +.qXFXqXT u e.hXG ' Q 7 B I l.9 = B V | ",
") G.[ _ ! # 8 z ( h.0X[ k g.0XE.d X X D r.D.{ u A 5 { <.8.2.>XMXNXqXe.{ m J P.e.K A 9 4 D 9XkX;Xu r.8.] 6._.~.O.R.|.{ 0 m J A 1X",
"j G.S.2.j 8 t 8 d oX&X|.;.rX[ ! s < J , Q Q S.e.w X , t _ _ G Z.D.} 6./ 0 H f.J.H G G 7 m o.{ J J N w p &.}.zX>X/.*X9X> B 5.Z.2X",
"i _ v.c.6.I s [ T u./.P ( jXcXcX3Xg.E w ) H : v., - * @ i C w # s f.8.3.0 / S.W * O 0 ] G.} p q u A j l h :.P d Y /._.P.] 0.e.Z ",
"t ^ S.tXJ.^.<XmXkX .6.: t d.lX*X'.W H 7 A g 4.q.e.  % X a q 6 , ` t.L.L.2XW 7 s X > > { r 1Xr.G * V u j 0.H : A u l m.P.r.1.j '.",
"7 S G w ~ zXFXIX8Xs.t # X : U u.! , i ! Z _ v.u M % = q 9 w * H S.e._ Z rXAXCXD.6.e.m G 4.* e.A $ - 3 j Z 9 * g p c e.f.F.( I 0.",
"l.e.7 # ~ mXDXPX} 6 uXqXA.p y k k 6 W.oX8X2 X M / 4.- t w C Z y.J : * : Z.|.=XlX} ` q u j i &.3.: o X 6 p q * : P.h a j E 1.J.] ",
"iXE D.0 w <X9XA.W V IXMXA.t a x a 6 |.NXNXeXO = q H V [ ~ , K ( = i.W.% % u.T.s.> G 6 s ) iX{ H O X q w u * w ) r.3 i y s _ B o.",
"6.h.%XkXP Y Y.Y.~.+.CXa.d 8 = : 9 / ,XCXjXv.v c r.q.!.+X/.S I v.O.'.=XT y u s G > 0 R.9X> 2 7 G _ 0 i : u 9 <.f.W q m n.y.( + 7 ",
"g p.lXmX .T Q.R.P s x s c a.OXi.w u a m tXt.c.p.!.{ tXOXzX .^ 3.L.lX@X;Xt 6 y H 7 W.*XNXuX9 7 w j 0 V T = u _ % * j v.n.s o A h ",
"c 8.;X~. .s ! a s @ = y z }.=XzXz.j * w %.} 4X!.%X|.s.;XjXyXH./ I b.z.a t : e * g g.zXZX2X/ l Q 4.g.sX|.r j 7.V 2 K v.L - ~ ..!.",
"c j B s b.iXpX` b : 6 y r.(.OXxXM.*.8 Z l S [ lX=X&Xu.G.vXmXjXj 1.G 0 s d i.~ 6 j _ +.JXP.j.1.e.} L.@XoXs.s 3.2XL.v i * 0 OX&XnX",
"+ 7 h =.>.>.*.g x ` r M g.w Z D Z a 7 y t j X :XMXOX' E 0XzXVXe.c w 6 y ].$XmXu.E : 6 4.Q J.m.+X|.s.E.qXuX[ 9./ r.L.rX= s.%XmXDX",
"l y q.m.=.%.j Z _.|.}.} {.s $ & & < = i a u j w [ T F = ' s.z.y 7 = f { ^.XXmX_.j.s m U S [ 8X&X&X/.} AXzXBXJ t.r.{ V 6 $.b.ZXJ.",
"2.v 9.J.r.) + G _.=X&Xz.t.&.I k , = @ M } 3.&.r.] S G u t F c &./ u p _ ( ! A.G H t y u ^ > :XMXzXE.j <XzXCXJ.4Xm * q j =.f.iXl.",
"v p > : = w q u ` (.T.H t v w.1.z t a 9 ) 9._ } eXjXJ.P.C.W 2.x.j.%.%.l.E o & & < = y t H A Z A.~ W % ' E.^.( Q * = y $.$.j.0.^ ",
"H 6 $ * @ h -.j 3.f.w w u 8.B.hXL.2.7.<./ c J.2XFXNXVXtXc.&.s 4X2.,.B.m.j y a X = @ u Z.) 2.j A m > = y B ) c v 9 A h K v <.i , ",
"z 1./ e.A j.1X[ <.z   ^ o % ] D ] H t.L.C._ 9.` ZXDXAX2 G pXS.u G S S.P.<.%.&.l p w 9 G 5.x.F.o.G./ q.S ] y.>.j.^ i v q 7 4 = $ ",
"C.hXn.H.Q ' 6.s.z K * <.= X p l h X * s 7 7 t [ fXdXH.& Z Z 7.=.2.7.2.{.9.n.gXG.8.-.&./ L J.O.PXFXVXgXjX=.H m.S.=.k.,.<.+ ; X 9 ",
"o.IXPXtXw % o 9 c 6 4 *.3.g l j &.0.d 8 w * * o 1.&.( 9 {.aXx.3.pX0.8.B./ r.o.I.6.v.m.L.H 0.J.AXFXFXtX` U.s.] D 2.n.4XG 0 $ = 8.",
"3XNXNX8X` 5 @ q = w % $.,.,.*.9 2.[.-XW.d : X * a Q MXD.B.n.j : 0 = 7 6 X 9 p v = > Q u 8 ( ] dXZXuX& : ] Z.=.%.^ ( B.B.x.*.a.).",
"s._.@X<Xq.z j L A.qX~ u ` tX6.^ s.XX&X).2 . - = ] SXmX@X5.n h.uX* u = 9 9 j i *./ w w 9 + : * k &.t.# v.J.x.7.iXK.j.B.m.3.t 6X*X",
"t 5.! m b.' 2.<.sX*XXX&.9.y.8.K.5X).+Xd.P T./.| @ yXmXkXl &.+XcX_.D.t 7.,.,.w *.].}.R.d t X * C ` 7X[ B.m.9.B W w w G t = 3 E _.",
"X - A d.sX~.f.2XsX=XXXn.iXr.D.h.|.XXsX5.z.#X-XT.$ T DX9Xw w.zX&XkX] i 7.P.x.k Q ).&X#XT X & 6 Z 2XmXmXh.c ( :X> = 4 + + 4 h *.3X",
"X : a u.a.p.j h._.`.)./ / H.BXxXE.d...d._.#X#XR.G ~.*XvXT ' qXxX3XA i c { v.v.4XsX@XsXS | ..| w <XmXmX_ n ^.CXE.} 9 X @ J / t.SX",
"0 j b &.-.=.^ '.oX_.~ 3 X @.IXlXa.l ' XX$X`.:X9 / (.oXzX..Y.Y.Y l L t.pXJ.H > } ' a.s.w.[.-XR.% 2 AXSXe *.|.&X*X:XH g $.<.9.2XSX",
"m.1.J.W iX/ d.kXOX(.G.4 e [ uX!.V.V.{.oX*XzX9Xu c ! Q.E.P Q.Y.'.I.) 4.n.w , X : = = T ,X+X$XOX!  .@XDXV k 7X@XcX] p &.j.B.r.y <X",
"l.=.y., D.V '.}.).h.$.y T.#X#X Xb.1.c !._.sX|.6 9 - 2.g.W [ ~.d.% 6 u i 3 = * S 7 s R.-X#XQ.! h ^.&XmXW.T.Q.h.' b 6 6.H Q J &.I.",
"aXq.l = 6 D E.qX^.=.=.v | oXoX].k j : A Z >Xd.p = > w r.C.y c %.- = * k &.v + # 6 s.#X&X@X! o p Y Q.kXr (.Y.T.j j.r.L s ^ = @ F ",
"S H / a 8.-.{ I.[ P.U.k R W.~.{.M.1.9 u 6 > - 6 ; * % 7 2.-.l.1Xr.6 0 8.0.0.* $ 9 u a.OX7XS @ 6 : b ,X0.<X..~ - A <.w.w.8.: @ 7 ",
"% a t G gX8.u - * O.F.G 0 p z n.n.r.w ) H p N eXX * - + s p.sX`.5XI s ;XsX(.r - j.u r E S <.i 7 j b M.aXm.t u A 9 <.8.p., X 5 y ",
"c y t 9 W v h a y b &.h.^ $.l.n.^ 9 , 2.j.h.8X0X  7 p x -.a..XoX2XL.Z.dXzX@XQ.b K.z p w.m.sX^.' * o 7 y t u g f g =.x.2.6 + 7 3.",
"$.b p Y Y.(.u.$ a K.^.XX(.5.} ] o = < K.D.cX=X&XE.z 1.l.x.z.].wXG H Z. .vXBXE M.n.j l j  XzXXX| 1 . X @ @ s -.*.>.9.K./ u d i.h.",
"j.v _ |.#XcXA.O $ B SXoXOX< o + 4 3 a ` +.VX@X`.q N.x.v ) l.s b t x / : [ F s I c X $ @ } @XoX/.P &.>.l.4 4 j 3.Q i Z w Y /..XT.",
"2.0 > uXbXBX>X@ 3 *  .;X .*   o 6 U &.(.i.S P R.Q.N.aX1X> 6 3 7.D.7.e.OXXXa.1 $ G.F 7 g 4.^.#XQ.&.,.aXS.u g b 6.B : u y U }.*X'.",
"p # 7 =.K.r.4 4 g p + t I A * 9 J -.!.oX#Xd.' HX$Xh.' S H y t $.e.0 0 /.).u., . V A t a 6.XXoXQ.E 7.x.J.Q b.(.}.Q.d 7 H 7 A.).d.",
"c 7 z x.=.b 4 t L j 4 z q.B * H 3.7.z.+XnXi.r ).GXR . % B = &.c 7 o 6 ~.:.H l = q j z E 0.|.(.u.S.] l.Z.N r.`.*XOXr 7 u / A ^ >.",
"%.u w hX2.7 % A S.^ i q 2X} 0 w 6.q.m.h. .k u.XX-X].O * r.) &.h y Q x _ n c 8.u s v H f.G 6.;.t m 9 5 I c H.PXcX3X8 %.q.4.K k.B.",
":.= J F., = + , L.D 4 7 y.4.2.q : e.[ > o 7 ' #X&X@X&.s D { j.s p._.T.;.-.2.3.I j i 6 r :.z g y 7 q &.l.M.K.rX[ D H u Q u t v e.",
"T.p I h 6 q : = D + 6 Z k 4.A 8 = = o , - - T }.sX^.B.4Xq.y u 9 (.&XOX).#X^.w c *.j.e./.oX(.p.b 6 : 5.W o.8 : * = , 6 t h %.c H ",
"R.E 6.z.h.Q % 4 H 8 > & , { ) A * 9 ; * $ X 7 3.g.n.g.m H s * $ ,XlXsX*X&XOXo . S ` { OX=X#Xp.t 9 X $ X X @ j y w * @ w / ^ m.C.",
"] s Z.xXOX;Xm ^ 1.1.2 - - q i j j M % > 6 p l ^ g.n.6 C I -.<.E / u. .|.OXwX* . X w Q 3XsXBXeX@.9 . 3 3 G U >.0.H 0.3.Z E.~ G w ",
"y G eXPXZX@.0 j 1.<.9 - 9 p g <.H C % 7 j j q : * : o y / J.gXW s E._.sXd.U , & w K H 0 V PXIXdXQ . * n 1.q.5.r.9 w U ,XkX~.e M ",
"f s R G.Z.J y H l.1.% ^ s 7 i I I c - w 0 ^ z $     # 3 p r.[ H 0 _.$XcXo.0 q Z A s # $ 2 PXMXlX;X1 X H 0 Z a 6 : : j s.'.a.j.9.",
"c t [ _.tXG g A %.w.A 9 9 ) q / 2.9.H M J 9.-.H * * = 6 u i = 7 A yXcXE.T ) H *._ L = 6 > eXZX`.5.^ q 7 4 w y.9.a q y ' U 7.l.n.",
"U 5.yX|.0X[ Z 8 4.c s ) 2.L t L t.1.l w A J 5.E m = 7 7 * s J ) -.B V 6 * A.a.` 8.H 4 = , - < Z *.g.Z.[ - ` v.y.y u 0 a ^ 3.R Z ",
"t _ f.tXeX2 , t <.9.q ) 3.c l j 3.- 7 s u B xXvX;XD y 6 0 %._ l.n., 7 h ~ `.Y.' 2.p 9 3 0 m - = U ).OX5X9.A j.w.Z.3.J m m V w 9 "
};
